<svg width="82" height="106" viewBox="0 0 82 106" fill="none" xmlns="http://www.w3.org/2000/svg">
<path d="M81.4386 10.5469C81.4386 11.2666 81.4601 11.9218 81.4338 12.5745C81.374 14.1263 81.2975 15.6769 81.2174 17.2275C81.1589 18.3596 81.0799 19.4918 81.0154 20.624C80.9616 21.5577 80.9221 22.4926 80.8624 23.4251C80.8098 24.238 80.738 25.051 80.6711 25.8639C80.6221 26.4581 80.5742 27.0535 80.5133 27.6465C80.3208 29.5438 80.1295 31.4422 79.9263 33.3383C79.6178 36.2219 79.148 39.0828 78.5765 41.9246C77.8604 45.4872 76.9733 49.0093 75.7384 52.432C75.4992 53.0932 75.4753 53.7411 75.522 54.4214C75.663 56.5076 75.7945 58.5938 75.6559 60.6859C75.5913 61.6591 75.5686 62.6346 75.4873 63.6066C75.3797 64.8942 75.2745 66.1829 75.0964 67.4609C74.8154 69.4862 74.4293 71.4934 73.9283 73.4768C72.2367 80.1789 69.5097 86.4016 65.3242 91.9393C62.5482 95.6119 59.2664 98.7442 55.3368 101.171C52.4185 102.973 49.285 104.248 45.9184 104.906C43.9255 105.296 41.9063 105.51 39.8703 105.416C34.9674 105.192 30.4233 103.782 26.2437 101.212C22.5914 98.9654 19.4938 96.0997 16.8302 92.7486C12.8013 87.682 10.0504 81.9686 8.21763 75.7878C7.57922 73.6358 7.07829 71.4516 6.69812 69.2411C6.47336 67.9308 6.33946 66.605 6.17926 65.2839C5.87082 62.7506 5.77637 60.2041 5.83615 57.6553C5.86603 56.3629 5.9808 55.0729 6.03819 53.7806C6.05014 53.5104 6.03221 53.2175 5.94135 52.9676C4.50911 49.0427 3.42717 45.0234 2.70388 40.9108C2.35 38.8975 2.04275 36.8759 1.75941 34.8519C1.53107 33.2188 1.35413 31.5785 1.19034 29.9371C1.0696 28.7308 1.00743 27.5173 0.920156 26.3075C0.810168 24.7796 0.695398 23.2517 0.591388 21.7238C0.538785 20.9491 0.498137 20.1744 0.463467 19.3985C0.412059 18.2652 0.384562 17.1306 0.322395 15.9973C0.225558 14.2698 0.107201 12.5422 0.000799517 10.8147C-0.00398257 10.7406 0.0139503 10.6653 0.0211234 10.5971C0.841252 10.7597 1.6303 10.9498 2.4301 11.0658C4.02971 11.2989 5.6341 11.3252 7.24925 11.1901C8.53803 11.0813 9.81843 10.9354 11.0821 10.6676C15.0895 9.81644 18.7669 8.24432 21.9506 5.62493C23.6566 4.22139 25.0829 2.56798 26.1983 0.655146C26.2975 0.485382 26.4051 0.3204 26.533 0.11477C26.661 0.212803 26.7721 0.283339 26.8642 0.373003C29.6486 3.08086 32.9972 4.64461 36.8002 5.30573C38.3747 5.5795 39.9611 5.7134 41.5524 5.63808C45.4175 5.45517 49.0925 4.56451 52.4352 2.53809C53.3916 1.95827 54.2751 1.2804 55.0379 0.454299C55.1311 0.352679 55.1921 0.221172 55.3344 0C55.4575 0.439952 55.5256 0.701772 55.6034 0.9612C55.9811 2.21291 56.7307 3.23747 57.6166 4.1664C59.1182 5.7409 60.9043 6.92925 62.8303 7.91077C65.4652 9.25215 68.2388 10.1918 71.1583 10.6868C73.1034 11.0167 75.0557 11.2379 77.0331 11.116C78.3805 11.0335 79.7266 10.9223 81.0429 10.5935C81.1565 10.5648 81.2772 10.566 81.4386 10.5493V10.5469ZM7.42619 56.4801C7.37478 56.6522 7.34729 56.7036 7.34609 56.755C7.33294 58.8592 7.3425 60.9597 7.5577 63.0602C7.67605 64.2175 7.75496 65.3783 7.93787 66.5284C8.08851 67.4789 8.24751 68.4281 8.40293 69.3786C8.75083 71.5114 9.30436 73.594 9.92842 75.6598C11.0247 79.2882 12.5191 82.7421 14.3722 86.0477C15.7948 88.587 17.459 90.9542 19.373 93.136C20.2733 94.1617 21.1544 95.221 22.2578 96.0626C23.06 96.6747 23.7821 97.3908 24.5819 98.0053C26.606 99.5607 28.7926 100.844 31.1633 101.805C32.7342 102.441 34.3362 102.962 36.0147 103.22C37.0835 103.385 38.1523 103.61 39.2271 103.658C40.7884 103.727 42.3534 103.704 43.9135 103.458C45.0588 103.276 46.1946 103.076 47.3112 102.772C49.7764 102.101 52.0766 101.046 54.2488 99.7126C55.7982 98.7609 57.2615 97.6861 58.6101 96.4703C59.4792 95.6872 60.3328 94.8886 61.1243 94.0135C62.3485 92.6614 63.5105 91.2662 64.5638 89.7825C66.6452 86.8499 68.3213 83.6938 69.6878 80.3702C70.5785 78.2051 71.3376 75.9934 71.9234 73.7291C72.2964 72.2861 72.5858 70.8204 72.8942 69.3618C73.0687 68.5369 73.2254 67.706 73.3557 66.8727C73.4657 66.1722 73.5386 65.4656 73.6055 64.7591C73.6641 64.1493 73.6904 63.5372 73.7335 62.9251C73.8112 61.8001 73.9044 60.6752 73.963 59.549C73.9953 58.9333 73.9714 58.314 73.9678 57.6959C73.9678 57.5309 73.9499 57.366 73.9391 57.201C73.7478 57.4126 73.6211 57.6314 73.5218 57.8609C72.8631 59.3816 72.0777 60.8366 71.2516 62.2712C70.2748 63.9664 69.1941 65.5935 68.0272 67.1633C67.8001 67.4693 67.5383 67.7503 67.2513 68.091C66.9835 67.2661 66.7468 66.5392 66.5292 65.8697C67.3171 64.6742 68.0822 63.5432 68.8151 62.3919C70.392 59.9148 71.6532 57.2739 72.7531 54.5589C73.7896 51.9993 74.6612 49.3775 75.3355 46.6983C75.7922 44.8847 76.2022 43.0591 76.6015 41.2324C76.8621 40.0381 77.0833 38.833 77.2913 37.6279C77.4456 36.7336 77.5532 35.831 77.6775 34.932C77.7707 34.2661 77.8604 33.599 77.9489 32.9319C78.0577 32.1093 78.1784 31.2868 78.2669 30.4619C78.3697 29.4959 78.4402 28.5276 78.5311 27.5604C78.6399 26.4163 78.7702 25.2745 78.8635 24.1304C78.9328 23.2804 78.9555 22.4256 79.0009 21.5732C79.0057 21.474 79.0153 21.3747 79.0224 21.2755C79.0906 20.386 79.1731 19.4978 79.2245 18.6071C79.2879 17.4965 79.3225 16.3834 79.3739 15.2716C79.3799 15.1329 79.4253 14.9978 79.4361 14.8591C79.4851 14.2112 79.4803 13.5644 79.4648 12.8112C76.2967 13.3588 73.205 13.3492 70.1206 12.7801C67.0648 12.2158 64.1956 11.1506 61.4997 9.60124C58.7799 8.0375 56.3745 6.10553 54.4258 3.58896C53.0342 4.71395 51.4967 5.44202 49.9067 6.04934C47.3543 7.02369 44.6835 7.47202 41.9684 7.61428C40.7825 7.67645 39.5857 7.5569 38.395 7.52581C37.062 7.49114 35.7672 7.22693 34.4725 6.93044C32.2345 6.41757 30.1399 5.57472 28.2199 4.30866C27.878 4.08271 27.5253 3.87349 27.1726 3.65352C27.0459 3.78742 26.9371 3.87828 26.8582 3.99065C25.6388 5.73492 24.1193 7.18031 22.3929 8.40452C20.0664 10.0531 17.4853 11.1793 14.7464 11.9337C13.0703 12.3952 11.3666 12.7168 9.63552 12.9224C7.89842 13.128 6.16372 13.2799 4.41467 13.2631C3.79658 13.2571 3.17969 13.2595 2.56161 13.2643C2.41097 13.2655 2.26034 13.293 2.08101 13.3109C2.08101 13.629 2.07144 13.9063 2.0834 14.1825C2.11807 15.017 2.16111 15.8502 2.19937 16.6835C2.20415 16.7827 2.19937 16.8832 2.20415 16.9824C2.28186 18.2317 2.36435 19.4798 2.43608 20.7292C2.4851 21.5816 2.51379 22.4352 2.5628 23.2876C2.59628 23.8818 2.64171 24.4759 2.69551 25.0677C2.76007 25.7779 2.84853 26.4856 2.9119 27.1969C2.9657 27.7899 2.97885 28.3865 3.04699 28.9771C3.18687 30.1941 3.34946 31.4088 3.50727 32.6246C3.66986 33.8787 3.80256 35.1388 4.01058 36.3857C4.29512 38.0953 4.594 39.8049 4.9658 41.4978C5.56237 44.2116 6.24501 46.9063 7.11296 49.5484C8.1985 52.8541 9.49086 56.0736 11.1204 59.1557C12.2967 61.3805 13.6094 63.5169 15.1564 65.6186C14.9317 66.3061 14.6914 67.0401 14.426 67.8531C11.5316 64.3777 9.30436 60.5939 7.4238 56.4825L7.42619 56.4801Z" fill="white"/>
<path d="M45.477 19.5162C45.5775 19.7493 45.654 19.9956 45.7819 20.212C46.1358 20.8109 46.5315 21.3848 46.8722 21.9909C47.5549 23.2032 47.892 24.517 48.0044 25.9039C48.0869 26.9212 48.0235 27.9315 47.984 28.9453C47.9757 29.1557 47.9183 29.3649 47.8717 29.6494C47.305 28.155 46.7849 26.7419 46.2314 25.342C45.874 24.4381 45.4878 23.5427 44.9235 22.7393C44.7203 22.45 44.4991 22.1786 44.1333 21.9574C44.04 22.4596 44.1536 22.8816 44.2265 23.294C44.5003 24.8422 44.7406 26.3904 44.6462 27.9733C44.5971 28.7922 44.3281 29.8491 43.9814 30.4026C43.7925 26.5745 43.0131 23.3861 41.9765 22.3364C41.649 23.0932 41.7889 23.8559 41.7781 24.5816C42.0076 24.7789 42.2097 24.9522 42.4368 25.1471C42.2802 25.3575 42.1642 25.5129 41.9682 25.7771C41.9383 26.5136 41.9024 27.3648 41.8713 28.1204C42.0507 28.4515 42.1786 28.6858 42.2993 28.9082C42.1511 29.127 42.0399 29.2908 41.8773 29.5299V31.7559C42.1021 32.0891 42.2248 32.3896 42.2455 32.6574C42.1941 32.7159 42.1332 32.7913 42.0662 32.8618C42.0124 32.918 41.9526 32.9682 41.912 33.0065V36.0311C42.2659 36.3814 42.805 36.3264 43.0597 36.7759C42.9497 36.8309 42.8553 36.9086 42.7501 36.9242C41.5832 37.1047 40.4068 37.0569 39.2328 37.0318C39.13 37.0294 39.0284 36.9385 38.8515 36.8525C39.0093 36.6934 39.124 36.5691 39.2496 36.4567C39.3667 36.3515 39.4958 36.2583 39.6572 36.1304C39.6895 35.6402 39.7361 35.1261 39.7529 34.6108C39.7696 34.0944 39.7565 33.5779 39.7565 33.0543C39.6022 32.9252 39.454 32.7996 39.2412 32.6215C39.4289 32.4266 39.5975 32.2521 39.7828 32.0608V29.4534C39.5867 29.1963 39.4217 28.9811 39.2185 28.7157C39.448 28.534 39.6262 28.3917 39.8473 28.216V25.9134C39.7194 25.8309 39.5508 25.7233 39.4934 25.6863C39.2878 25.0789 39.6943 24.8327 39.8892 24.4633C39.8892 23.8021 39.9836 23.1063 39.6883 22.3113C39.3691 23.2916 39.0451 24.156 38.8084 25.0431C38.4964 26.2099 38.2095 27.3875 37.9978 28.5758C37.8699 29.2908 37.7396 30.032 37.9333 30.7696C37.9524 30.8426 37.9357 30.9239 37.9357 31.0171C37.6213 30.9011 37.4957 30.6549 37.3762 30.4014C37.0295 29.6662 36.9302 28.8699 36.9219 28.0809C36.9075 26.8495 36.9625 25.6145 37.0402 24.3843C37.0773 23.7997 37.2351 23.2235 37.2925 22.6245C35.6331 24.6462 34.6384 27.0097 33.7741 29.4546C33.6151 27.7677 33.6916 26.1059 34.0287 24.4537C34.367 22.7991 35.0353 21.2688 35.7981 19.7601C34.0777 21.0871 32.7124 22.725 31.3555 24.4848C31.3268 23.3299 31.6173 22.3472 32.1219 21.4195C32.8535 20.0733 33.8518 18.9447 34.9995 17.9429C35.461 17.54 35.9308 17.1478 36.4461 16.7103C36.1651 16.5692 35.9368 16.6517 35.7156 16.6601C34.4997 16.7067 33.3927 17.1383 32.294 17.6105C31.7907 17.8269 31.2706 18.0038 30.7207 18.1365C31.5074 17.0379 32.5654 16.262 33.6545 15.5255C34.7628 14.7771 35.9726 14.2368 37.2985 13.8626C36.8442 13.2648 36.1484 12.9121 36.0216 12.1027C37.2411 12.4578 38.3577 12.954 39.4911 13.5517C40.2383 12.8882 40.3387 11.9007 40.726 10.9766C41.2473 11.8063 41.3991 12.7244 41.8199 13.4931C42.1571 13.6294 42.389 13.4549 42.6281 13.3186C43.129 13.0329 43.6144 12.7196 44.1297 12.4626C44.5828 12.2366 45.0658 12.0717 45.5356 11.8804L45.6193 12.0035C45.3491 12.2797 45.073 12.5511 44.8087 12.8332C44.5409 13.1201 44.2839 13.4178 43.9539 13.7872C44.2875 13.9211 44.5314 14.0311 44.7836 14.116C45.9349 14.5069 47.0396 14.9923 48.0641 15.6534C49.0086 16.262 49.8287 16.9984 50.5233 17.9668C49.9112 17.9261 49.3995 17.7432 48.913 17.5017C47.996 17.0462 47.03 16.7629 46.0174 16.6433C45.7448 16.6111 45.4663 16.6386 45.0694 16.6386C45.4197 16.9195 45.691 17.1407 45.966 17.3571C46.9714 18.1449 47.941 18.9674 48.6918 20.0171C49.5944 21.2808 50.1527 22.6927 50.4982 24.1955C50.5114 24.2516 50.4994 24.3126 50.4994 24.4824C50.0284 23.93 49.61 23.4483 49.2011 22.9581C48.8699 22.5612 48.54 22.1619 48.2267 21.7506C47.5286 20.8336 46.6247 20.1522 45.6851 19.5114C45.6408 19.4815 45.5727 19.4851 45.5153 19.4731C45.483 19.454 45.4507 19.4349 45.4185 19.4146C45.4376 19.4468 45.4579 19.4791 45.477 19.5114V19.5162Z" fill="white"/>
<path d="M40.4071 101.156C33.9178 101.069 27.7704 98.9423 22.534 94.4424C17.9408 90.496 14.9604 85.5489 13.931 79.5474C12.6172 71.8805 14.487 65.0027 19.4352 59.0143C23.6004 53.9728 28.9994 50.9457 35.3859 49.6593C37.5988 49.2134 39.8464 49.04 42.0999 49.168C49.462 49.5888 55.8162 52.3158 60.9653 57.6406C64.7109 61.5129 67.0529 66.1396 67.818 71.4824C68.7924 78.2825 67.2203 84.5004 63.1567 90.0381C59.3776 95.186 54.3158 98.5 48.1744 100.185C45.7618 100.846 43.2967 101.137 40.4071 101.156ZM40.853 50.0802C39.1924 50.0419 37.5474 50.2021 35.9203 50.4986C31.7001 51.2673 27.8386 52.892 24.4397 55.5198C18.8016 59.8799 15.4123 65.5514 14.628 72.6935C14.3232 75.4695 14.5001 78.2227 15.1935 80.9306C16.7501 87.0098 20.1621 91.829 25.2945 95.3881C31.3355 99.576 38.0471 100.976 45.286 99.8486C50.0298 99.1097 54.2775 97.2065 57.9741 94.1399C63.1364 89.8576 66.1981 84.3976 66.9895 77.7147C67.3494 74.6756 67.0852 71.6665 66.2471 68.7291C64.5985 62.9416 61.2474 58.3424 56.3267 54.9053C51.6868 51.663 46.5007 50.1088 40.8506 50.0813L40.853 50.0802Z" fill="white"/>
<path d="M42.3232 41.716C43.4853 42.8195 44.566 43.8452 45.6623 44.8853C46.1381 44.4526 46.5793 44.0533 47.0682 43.6085C47.2691 43.8034 47.4616 43.9899 47.6839 44.2051C47.2822 44.6534 46.9021 45.0778 46.4908 45.5369C46.9009 46.1394 47.3109 46.6786 48.0306 46.858C48.3092 46.5651 48.5507 46.2722 48.8316 46.0235C49.4222 45.4998 50.112 45.2392 50.9142 45.3217C51.4415 45.3755 51.8169 45.6039 51.9257 46.155C51.8611 46.7253 51.4773 47.0767 51.09 47.4222C50.882 47.6075 50.6512 47.7666 50.4516 47.9602C49.6733 48.7122 48.7611 48.8676 47.7509 48.5819C46.8267 48.3201 46.0867 47.7522 45.385 47.1246C45.2965 47.0457 45.2116 46.9632 45.0897 46.8484C44.6091 47.2393 44.1356 47.6243 43.6407 48.0272C43.4458 47.794 43.2474 47.5585 43.0441 47.317C43.4123 46.9656 43.8391 46.5579 44.3197 46.0988C43.1326 44.9834 41.912 44.0736 40.7344 43.0299C39.5938 44.0317 38.4772 45.0121 37.3307 46.0187C37.7647 46.5232 38.1759 47.0002 38.6159 47.5107C38.3708 47.7331 38.1544 47.9303 37.8675 48.1922C37.4419 47.7092 37.0354 47.2489 36.5895 46.742C36.3851 46.9393 36.2452 47.0684 36.1113 47.2035C35.6462 47.6745 35.1321 48.075 34.5177 48.3356C33.1093 48.9346 31.8349 48.6453 30.6705 47.7307C30.1958 47.3577 29.8204 46.8962 29.6256 46.2925C29.9041 45.7306 30.3238 45.3492 30.9801 45.2739C31.4129 45.2237 31.8218 45.3229 32.1744 45.5513C32.7555 45.9266 33.3078 46.3451 33.9474 46.7994C34.324 46.424 34.7544 45.9948 35.2146 45.5357C34.8106 45.0145 34.4268 44.5183 34.0096 43.9791C34.165 43.7831 34.3216 43.5882 34.526 43.3312C35.0317 43.8022 35.5052 44.2422 36.0133 44.7144C37.2243 43.8596 38.256 42.8195 39.3452 41.7435C38.849 41.3227 38.3899 40.9198 37.9177 40.536C36.2822 39.203 34.6073 37.9202 32.7913 36.8395C31.3531 35.9835 29.8539 35.2554 28.185 34.9673C27.4425 34.8394 26.6894 34.7676 25.9434 34.6612C25.513 34.5991 25.0862 34.5166 24.541 34.4233C25.4652 33.987 26.3295 33.8148 27.213 33.7443C30.2759 33.5004 33.0065 34.4747 35.5566 36.072C37.2351 37.1228 38.7295 38.4044 40.1223 39.8068C40.3315 40.0184 40.5287 40.2419 40.781 40.5133C40.9699 40.34 41.1277 40.2037 41.2771 40.0578C42.8218 38.5539 44.474 37.185 46.321 36.066C47.8238 35.155 49.4067 34.4257 51.1282 34.0432C53.1833 33.5865 55.2253 33.5602 57.2218 34.3492C57.3103 34.3839 57.394 34.4341 57.5482 34.5094C51.414 34.7497 46.5817 37.5389 42.328 41.716H42.3232Z" fill="white"/>
<path d="M40.9045 99.5784C40.3271 99.5784 39.7484 99.6107 39.1746 99.5712C38.3066 99.5115 37.4351 99.4445 36.5779 99.3034C34.9436 99.0345 33.3476 98.6088 31.7898 98.0362C29.137 97.0594 26.7053 95.7025 24.4924 93.9391C23.1641 92.8811 21.9435 91.7167 20.8723 90.4064C19.4772 88.7004 18.2924 86.8628 17.3874 84.8364C16.6916 83.2799 16.162 81.6767 15.8045 80.0221C15.5881 79.0226 15.4985 77.9945 15.398 76.9735C15.3203 76.1844 15.257 75.3858 15.2868 74.5956C15.3944 71.7753 15.9121 69.0376 16.9737 66.4051C17.8082 64.3356 18.8973 62.4192 20.2507 60.657C21.6231 58.8709 23.2156 57.3024 25.0196 55.9371C27.3951 54.139 29.9918 52.7916 32.824 51.8914C34.1773 51.461 35.5533 51.1394 36.9653 50.9422C38.4991 50.7282 40.0342 50.5644 41.5788 50.6397C42.6404 50.6911 43.7032 50.7772 44.7625 50.9314C46.3513 51.161 47.8995 51.5256 49.4154 52.0349C52.0408 52.916 54.4546 54.1928 56.677 55.8534C57.9084 56.7739 59.025 57.8116 60.0783 58.9211C61.2547 60.1608 62.2709 61.5297 63.1436 62.9978C64.1263 64.6512 64.9202 66.3919 65.4689 68.2414C65.8443 69.5098 66.1396 70.7902 66.2998 72.1089C66.4612 73.4335 66.5784 74.7582 66.5054 76.0876C66.3476 78.9891 65.7451 81.7914 64.5866 84.4694C63.7808 86.3308 62.7563 88.0619 61.5237 89.6628C60.4931 91.0005 59.3263 92.214 58.0435 93.3258C56.1761 94.9458 54.1186 96.2549 51.8794 97.2758C49.8482 98.2024 47.7297 98.8599 45.5192 99.2413C43.9866 99.5055 42.4527 99.6095 40.9057 99.5808L40.9045 99.5784ZM29.1143 59.0717L29.0999 59.0574C28.8548 59.5105 28.4173 59.7281 27.9725 60.0198C27.5816 59.5942 27.2098 59.1901 26.8571 58.8075C26.4781 58.829 26.3191 59.0287 26.2056 59.367C26.6395 59.8381 27.0783 60.3151 27.5398 60.8172C27.7777 60.755 28.0204 60.7526 28.1818 60.6367C28.7472 60.2326 29.2972 59.8034 29.828 59.3551C30.1663 59.0693 30.1878 58.7716 29.9583 58.3998C29.8878 58.2863 29.7838 58.193 29.7001 58.0962C29.186 58.0543 28.9421 58.5445 28.4878 58.6425C28.4029 58.523 28.3168 58.401 28.1889 58.2229C28.501 58.0029 28.7843 57.8033 29.0724 57.6C29.5913 57.8248 30.0695 58.0125 30.5298 58.2384C30.9625 58.4501 31.3547 58.4214 31.7743 58.193C32.5179 57.7877 33.2615 57.4004 34.0721 57.1135C36.0148 56.4272 38.0018 56.0016 40.0533 55.894C41.9912 55.7936 43.8981 56.0435 45.7727 56.5348C47.2563 56.9234 48.6706 57.4865 50.0204 58.2193C50.3312 58.3879 50.642 58.5935 51.0557 58.4369C51.1083 58.3891 51.1968 58.3341 51.2506 58.254C51.4502 57.9575 51.6499 57.6598 51.8304 57.3502C52.0683 56.9425 52.0444 56.5755 51.6833 56.279C51.3833 56.0327 51.0306 55.8283 50.6683 55.6848C49.9905 55.417 49.694 55.5784 49.4549 56.2575C49.2624 56.2778 49.0675 56.2969 48.8571 56.3184C48.722 56.4822 48.5881 56.6436 48.4423 56.8194C43.4139 54.8264 38.3796 54.836 33.2962 56.799C32.8299 55.6992 32.378 54.6304 31.9345 53.5819C31.5639 53.4803 31.308 53.5544 31.1096 53.882C31.5053 54.983 32.1401 55.9956 32.5143 57.1422C32.0804 57.3645 31.6966 57.5606 31.3308 57.7471C30.7533 57.4912 30.2046 57.2629 29.6714 57.0047C29.3629 56.8552 29.1083 56.8815 28.8429 57.086C28.5273 57.3275 28.1925 57.5438 27.8745 57.7818C27.6306 57.9647 27.4405 58.1906 27.4262 58.5923C27.6007 58.8123 27.8064 59.0729 27.9594 59.2654C28.4567 59.4686 28.7652 59.1769 29.1143 59.0705V59.0717ZM40.8902 92.9206C41.9219 92.9421 42.9405 92.8679 43.9638 92.7042C45.5276 92.4543 47.0483 92.0502 48.4877 91.4166C51.0449 90.2892 53.3069 88.7326 55.1515 86.5938C56.2419 85.329 57.1349 83.9541 57.8749 82.4585C58.8051 80.578 59.3144 78.585 59.4853 76.518C59.6108 74.9985 59.5594 73.4598 59.2522 71.9547C58.8648 70.0586 58.2264 68.2545 57.2437 66.5724C56.0207 64.4791 54.4581 62.7001 52.5369 61.2201C50.6074 59.734 48.4602 58.7095 46.1325 58.0328C45.0338 57.7124 43.9112 57.4781 42.7779 57.4016C41.9805 57.3478 41.1747 57.2856 40.3629 57.3454C39.4364 57.4135 38.5147 57.447 37.5905 57.5953C35.8869 57.8666 34.2717 58.3975 32.7116 59.104C31.6141 59.6001 30.6003 60.2409 29.6104 60.9344C28.3778 61.7975 27.3162 62.8388 26.3359 63.953C25.242 65.1976 24.4027 66.625 23.7081 68.141C22.6537 70.4423 22.2496 72.8693 22.1766 75.3703C22.1659 75.7421 22.24 76.1163 22.2854 76.4893C22.3739 77.2126 22.4277 77.943 22.5712 78.6556C22.9274 80.425 23.579 82.0939 24.4744 83.6565C25.132 84.8042 25.8959 85.8861 26.8093 86.8533C27.7239 87.8205 28.7006 88.7195 29.7981 89.4751C31.1311 90.392 32.5227 91.2086 34.0661 91.7226C34.9783 92.0263 35.8988 92.3156 36.8349 92.5344C37.8499 92.7723 38.8841 92.9349 39.9361 92.9241C40.2553 92.9206 40.5733 92.9241 40.8925 92.9241L40.8902 92.9206ZM32.8024 96.3696C32.8419 96.586 32.8861 96.7988 32.9196 97.0128C33.026 97.6883 33.3512 97.8616 34.035 97.5687C34.035 97.3296 34.0613 97.0726 34.0302 96.8227C33.9609 96.274 33.8533 95.7288 33.7804 95.1813C33.7015 94.5931 33.6668 93.9977 33.5724 93.4119C33.4731 92.8022 32.8873 92.5631 32.3649 92.8943C32.2477 92.9684 32.1401 93.058 32.0289 93.1405C31.2303 93.7275 30.4317 94.3157 29.6319 94.9015C29.4574 95.0295 29.2769 95.1478 29.143 95.2399C29.0067 95.5914 29.1214 95.8149 29.3593 95.9644C29.5973 96.1138 29.8555 96.0851 30.0898 95.9309C30.3182 95.7802 30.5417 95.62 30.7509 95.4754C31.4324 95.7731 32.0839 96.0576 32.8036 96.372L32.8024 96.3696ZM42.1203 94.4425C41.3134 94.391 41.2488 94.4305 40.9416 95.0713C40.6857 95.6069 40.4359 96.1461 40.1633 96.6745C39.8644 97.2531 39.5428 97.8186 39.2535 98.3494C39.3491 98.8001 39.6193 98.9029 39.9349 98.8922C40.4801 98.7224 40.4885 98.1617 40.8005 97.8377C41.5333 97.7923 42.2626 97.7469 42.9548 97.7038C43.2322 98.0565 43.4737 98.3638 43.6925 98.6423H44.2699C44.6477 98.2382 44.6537 98.1593 44.3966 97.766C43.7678 96.8036 43.1485 95.8364 42.5149 94.8764C42.4085 94.715 42.2519 94.5859 42.1192 94.4425H42.1203ZM44.6943 93.9846C44.6704 94.2285 44.6094 94.4245 44.6417 94.6039C44.8653 95.8388 45.0518 97.0846 45.4128 98.3446C45.7392 98.3136 46.0022 98.2884 46.2329 98.2669C46.4661 97.9011 46.3585 97.5927 46.2975 97.2854C46.2282 96.9363 46.1289 96.5896 46.1014 96.2381C46.0668 95.8077 46.3107 95.5172 46.7327 95.4383C46.9001 95.4072 47.0794 95.4335 47.23 95.4335C47.7812 96.0743 47.7106 96.9399 48.1577 97.5568C48.2486 97.5699 48.3072 97.5867 48.3658 97.5855C49.0209 97.5723 49.2194 97.2866 48.9946 96.6805C48.8296 96.2357 48.6766 95.785 48.4913 95.3487C48.2534 94.7856 47.8134 94.5704 47.2049 94.6361C46.6741 94.6935 46.2521 94.9613 45.8456 95.3271C45.7009 94.8441 45.573 94.4185 45.4427 93.9858H44.6955L44.6943 93.9846ZM55.8342 57.178C55.6537 56.8002 55.4504 56.5934 55.0392 56.6699C54.2609 57.6706 53.473 58.682 52.6744 59.7089C52.5262 59.6217 52.4317 59.5667 52.3504 59.5188C52.3337 59.3072 52.3205 59.1327 52.305 58.9307C52.1711 58.8589 52.036 58.7872 51.9212 58.7262C51.4885 58.9079 51.5626 59.2331 51.6152 59.648C51.822 59.8118 52.0611 60.0556 52.3457 60.2146C52.8131 60.4741 53.1526 60.3892 53.5041 59.9911C53.687 59.7831 53.858 59.5631 54.0349 59.3491C54.6279 58.633 55.2221 57.9169 55.8354 57.1792L55.8342 57.178ZM48.6862 92.6791C48.514 93.0329 48.557 93.2756 48.6658 93.5219C48.8021 93.8292 48.9253 94.1424 49.058 94.4508C49.3855 95.2124 49.7155 95.9739 50.0275 96.6948C50.4711 96.9507 50.752 96.7725 51.0916 96.3935C50.6767 95.1024 49.945 93.914 49.358 92.6312C49.0986 92.6492 48.893 92.6635 48.6862 92.6779V92.6791ZM35.7901 98.0888C35.8355 97.9609 35.9036 97.815 35.9371 97.662C36.1583 96.6374 36.3771 95.6129 36.5863 94.5859C36.7022 94.0192 36.5504 93.8614 35.8187 93.8758C35.3585 95.1275 35.0943 96.4748 34.732 97.7552C35.0656 98.2932 35.2198 98.3387 35.7889 98.0876L35.7901 98.0888ZM54.2334 61.354C55.3094 60.3557 56.2359 59.3694 57.1373 58.3783C57.05 58.0017 56.8277 57.8391 56.524 57.7327C56.4535 57.7877 56.3841 57.8284 56.3327 57.8846C55.5449 58.7489 54.7582 59.6145 53.9787 60.486C53.8951 60.5805 53.8652 60.7227 53.7707 60.926C53.901 61.0467 54.0278 61.1639 54.2322 61.3528L54.2334 61.354ZM52.0516 95.7288C52.58 95.8687 52.8561 95.7025 53.0414 95.3594C52.9853 94.88 51.9894 93.1955 51.5279 92.7843C51.1884 92.8138 50.9317 93.0042 50.758 93.3557C51.1824 94.134 51.6248 94.9458 52.0516 95.7288ZM52.4365 58.8338C52.9087 58.5003 54.3541 56.5014 54.4713 56.0494C54.2577 55.8215 53.9959 55.7163 53.6858 55.7338C53.112 56.6006 52.5238 57.4889 51.9105 58.4166C52.1245 58.5863 52.2871 58.7155 52.4377 58.8338H52.4365ZM39.0909 97.1109C38.957 97.0021 38.8422 96.8323 38.7 96.806C38.1237 96.6996 37.5403 96.6374 36.9736 96.5609C36.8708 96.7235 36.8098 96.8204 36.7214 96.959C36.8338 97.075 36.921 97.2495 37.0442 97.2806C37.6359 97.4325 38.2385 97.546 38.8841 97.4516C38.9415 97.3571 39 97.2603 39.0921 97.1097L39.0909 97.1109ZM50.2882 92.4495C50.5452 92.7018 50.7867 92.648 50.9935 92.4698C51.2039 92.2893 51.1991 92.067 51.0162 91.8613C50.4304 91.7824 50.3169 91.8721 50.2882 92.4483V92.4495ZM54.5861 55.7793C54.7152 55.686 54.8431 55.5951 55.0344 55.4589C54.8563 55.3058 54.72 55.1887 54.5634 55.0548C54.3852 55.1958 54.2465 55.3046 54.0816 55.4349C54.2716 55.5641 54.4151 55.6621 54.5861 55.7793ZM29.9966 60.0843C29.6626 59.9162 29.3992 59.9911 29.2063 60.3091C29.2673 60.3796 29.3378 60.4621 29.4466 60.5888C29.6534 60.3988 29.7993 60.2649 29.9966 60.0843ZM29.2924 60.6008C29.2015 60.4824 29.1346 60.3952 29.0868 60.3318C28.7568 60.4693 28.5643 60.5817 28.5906 60.8973C28.9206 61.1197 29.0832 60.9092 29.2936 60.6008H29.2924Z" fill="white"/>
<path d="M40.4537 58.5168C40.5231 58.9807 40.5864 59.4086 40.657 59.8797H41.2942C41.3552 59.3883 41.4149 58.9017 41.4831 58.3554C43.8 58.347 45.9914 58.8264 48.0967 59.7051C50.6755 60.7823 52.8573 62.3927 54.635 64.7048C53.6404 64.8375 52.727 64.9583 51.8244 65.079C50.3192 63.9086 48.8152 62.8051 47.1236 61.8846C47.0745 62.0137 47.0351 62.1141 46.9992 62.2157C46.9669 62.3066 46.9371 62.3987 46.8833 62.5577C48.3573 63.3168 49.7143 64.2362 50.9504 65.3779C51.1345 67.219 51.1692 69.0816 50.9301 71.0208C49.4405 71.5444 47.9305 72.0752 46.3883 72.6168C45.8396 72.2557 45.2932 71.8971 44.6799 71.493C44.3081 72.6598 44.069 73.8219 43.7797 74.9708C43.4928 76.1113 43.1783 77.2435 42.8747 78.3888C43.274 79.0559 43.7068 79.6704 44.4014 80.0948C44.8174 80.3494 45.1498 80.7463 45.5096 81.0883C46.3453 81.8821 47.1762 82.6819 48.0262 83.496C47.9533 83.6586 47.9018 83.8057 47.8253 83.9396C47.3543 84.7681 46.8916 85.6037 46.3943 86.4167C46.1958 86.7407 46.1133 87.0659 46.1265 87.4341C46.1373 87.7102 46.1289 87.9864 46.1289 88.2937C45.8455 88.3941 45.5933 88.4826 45.2825 88.5925V82.6197C44.4779 82.5743 43.7151 82.5934 42.889 82.6078C42.8388 84.7705 42.889 86.8937 42.8591 89.072C42.6415 89.1138 42.4419 89.1532 42.1645 89.2059V82.6209H39.7544V89.1688H39.0657C39.006 88.4563 39.0454 87.7461 39.0382 87.0384C39.0311 86.3019 39.037 85.5643 39.037 84.8278C39.037 84.0914 39.037 83.3992 39.037 82.7022C38.5863 82.5576 37.4876 82.5312 36.6317 82.64C36.597 83.2952 36.6197 83.9659 36.6161 84.6342C36.6125 85.2917 36.6161 85.9492 36.6161 86.6068C36.6161 87.2643 36.6161 87.9565 36.6161 88.6679C36.2503 88.6858 35.9801 88.5208 35.68 88.4108C35.5138 87.9147 35.7207 87.4257 35.7015 86.8794C35.142 85.8428 34.5586 84.7597 33.9513 83.6335C35.0835 82.4428 36.2192 81.2496 37.3263 80.0852C37.6203 80.0063 37.8678 79.9382 38.132 79.8676C38.3544 79.4659 38.5636 79.0595 38.8003 78.6709C38.9809 78.3744 38.994 78.072 38.9115 77.7539C38.5038 76.177 38.0938 74.6002 37.6849 73.0245C37.5773 72.6084 37.4697 72.1924 37.349 71.7237C36.8134 72.0884 36.3113 72.4291 35.7924 72.783C34.0673 72.2091 32.3433 71.6353 30.617 71.0614C30.7138 69.2036 30.8095 67.3804 30.9111 65.4257C31.8974 64.119 33.3954 63.2989 34.9161 62.4955C34.8934 62.3078 34.873 62.1344 34.8432 61.8906C33.1551 62.682 31.6403 63.6324 30.3026 64.9642C29.327 64.9212 28.318 64.8758 27.2109 64.8268C27.3879 64.5841 27.4955 64.4059 27.633 64.2517C30.3934 61.1625 33.7935 59.203 37.8965 58.5371C38.7095 58.4056 39.5511 58.3004 40.4573 58.518L40.4537 58.5168ZM35.0607 60.6245C36.585 66.5734 38.0866 72.4363 39.6037 78.3613H42.3869C42.4264 78.2166 42.4837 78.0301 42.5292 77.84C42.8795 76.3922 43.2333 74.9445 43.5752 73.4955C43.9949 71.7201 44.3954 69.9412 44.821 68.167C45.3518 65.9565 45.9029 63.7496 46.4385 61.5403C46.5091 61.2486 46.5425 60.9485 46.5975 60.6257H35.0595L35.0607 60.6245ZM44.8425 81.9036C44.0917 80.9544 43.4174 80.1031 42.7276 79.2316H39.2283C38.523 80.0565 37.7674 80.94 36.9437 81.9036H44.8413H44.8425Z" fill="white"/>
<path d="M51.696 71.7109C52.9465 72.9208 54.1612 74.096 55.4236 75.3178C55.3101 77.453 55.1857 79.6062 53.8623 81.4556C52.0881 81.9841 50.363 82.4969 48.6175 83.0158C47.3347 81.8418 46.0758 80.6893 44.8086 79.5285C46.303 77.7376 46.6354 75.6263 46.6306 73.3799C48.2768 72.7176 49.9697 72.2441 51.696 71.7109Z" fill="white"/>
<path d="M28.1226 81.6142C26.9187 79.6954 26.5552 77.6104 26.5002 75.4465C27.7603 74.153 28.9953 72.8869 30.253 71.5958C31.9315 72.1971 33.5885 72.7913 35.2909 73.401C35.1008 75.5709 35.817 77.5005 36.8834 79.3977C35.7094 80.61 34.5234 81.8354 33.3231 83.0764C31.5956 82.591 29.8788 82.108 28.1238 81.6142H28.1226Z" fill="white"/>
<path d="M33.4258 90.4575C34.1048 89.8693 34.7624 89.2978 35.4319 88.7168C35.8132 88.8615 36.1815 89.0013 36.6023 89.1603V90.6153C37.1068 90.7564 38.4051 90.7659 39.0017 90.6392C39.022 90.3678 39.0435 90.0785 39.0675 89.7569C39.2898 89.7772 39.4811 89.7952 39.7094 89.8155C39.7322 90.1012 39.7537 90.3714 39.7776 90.6846H42.1256C42.1447 90.4097 42.1627 90.1574 42.1866 89.8286C42.3814 89.8191 42.5859 89.8095 42.8274 89.7975C42.8525 90.0904 42.8752 90.3415 42.8967 90.5854C43.308 90.7396 44.3947 90.7731 45.2519 90.6512V89.2464C45.6548 89.0671 46.0134 88.9081 46.4175 88.7276C46.7535 88.9965 47.1026 89.2835 47.4612 89.5608C47.8043 89.8262 48.1558 90.0797 48.5193 90.3499C48.218 90.7898 47.8067 90.9931 47.399 91.182C46.457 91.6195 45.4563 91.8718 44.4341 92.038C42.9947 92.2735 41.5422 92.338 40.0896 92.2723C38.3179 92.1934 36.5676 91.9614 34.8963 91.323C34.3595 91.1186 33.8394 90.8843 33.427 90.4563L33.4258 90.4575Z" fill="white"/>
<path d="M25.8562 75.3007C25.8191 77.62 26.3451 79.7971 27.4115 81.8438C27.029 82.8301 26.6476 83.8176 26.2674 84.7991C24.2219 82.1547 22.7072 77.3702 23.4424 73.0723C24.2506 73.8183 25.0301 74.538 25.8562 75.3007Z" fill="white"/>
<path d="M56.1348 75.3973C56.9729 74.5497 57.7105 73.8049 58.4805 73.0254C58.9348 77.1978 58.1505 81.045 55.6232 84.5706C55.1784 83.5926 54.7719 82.6996 54.3535 81.7778C54.9393 80.7987 55.4271 79.7669 55.7176 78.6443C56.0021 77.5409 56.1109 76.4207 56.1348 75.3973Z" fill="white"/>
<path d="M50.6367 57.7291C50.7563 57.2222 50.5542 56.8684 50.1621 56.5695C50.2601 56.4595 50.3343 56.3746 50.4215 56.2754C50.7312 56.3148 50.9906 56.4153 51.1759 56.7751C51.0085 57.0704 50.822 57.3992 50.6355 57.728L50.6367 57.7291Z" fill="white"/>
<path d="M49.6913 57.4167C49.5371 57.3294 49.3984 57.2517 49.2598 57.174C49.2622 57.1309 49.2645 57.0879 49.2681 57.0449C49.3781 57.009 49.4989 56.9265 49.5945 56.9492C49.7643 56.9875 49.8635 57.1142 49.6925 57.4167H49.6913Z" fill="white"/>
<path d="M31.3711 94.9497C31.8218 94.5504 32.2056 94.2108 32.6682 93.8008C32.7101 94.4213 32.7471 94.9533 32.789 95.5761C32.2761 95.349 31.8421 95.1577 31.3711 94.9497Z" fill="white"/>
<path d="M41.1094 97.0597C41.3222 96.5217 41.5242 96.0136 41.7502 95.4434C42.0251 95.9562 42.2798 96.4321 42.556 96.9485C42.0646 97.1565 41.5983 97.037 41.1094 97.0609V97.0597Z" fill="white"/>
<path d="M81.4386 10.5469C81.4386 11.2666 81.4601 11.9218 81.4338 12.5745C81.374 14.1263 81.2975 15.6769 81.2174 17.2275C81.1589 18.3596 81.0799 19.4918 81.0154 20.624C80.9616 21.5577 80.9221 22.4926 80.8624 23.4251C80.8098 24.238 80.738 25.051 80.6711 25.8639C80.6221 26.4581 80.5742 27.0535 80.5133 27.6465C80.3208 29.5438 80.1295 31.4422 79.9263 33.3383C79.6178 36.2219 79.148 39.0828 78.5765 41.9246C77.8604 45.4872 76.9733 49.0093 75.7384 52.432C75.4992 53.0932 75.4753 53.7411 75.522 54.4214C75.663 56.5076 75.7945 58.5938 75.6559 60.6859C75.5913 61.6591 75.5686 62.6346 75.4873 63.6066C75.3797 64.8942 75.2745 66.1829 75.0964 67.4609C74.8154 69.4862 74.4293 71.4934 73.9283 73.4768C72.2367 80.1789 69.5097 86.4016 65.3242 91.9393C62.5482 95.6119 59.2664 98.7442 55.3368 101.171C52.4185 102.973 49.285 104.248 45.9184 104.906C43.9255 105.296 41.9063 105.51 39.8703 105.416C34.9674 105.192 30.4233 103.782 26.2437 101.212C22.5914 98.9654 19.4938 96.0997 16.8302 92.7486C12.8013 87.682 10.0504 81.9686 8.21763 75.7878C7.57922 73.6358 7.07829 71.4516 6.69812 69.2411C6.47336 67.9308 6.33946 66.605 6.17926 65.2839C5.87082 62.7506 5.77637 60.2041 5.83615 57.6553C5.86603 56.3629 5.9808 55.0729 6.03819 53.7806C6.05014 53.5104 6.03221 53.2175 5.94135 52.9676C4.50911 49.0427 3.42717 45.0234 2.70388 40.9108C2.35 38.8975 2.04275 36.8759 1.75941 34.8519C1.53107 33.2188 1.35413 31.5785 1.19034 29.9371C1.0696 28.7308 1.00743 27.5173 0.920156 26.3075C0.810168 24.7796 0.695398 23.2517 0.591388 21.7238C0.538785 20.9491 0.498137 20.1744 0.463467 19.3985C0.412059 18.2652 0.384562 17.1306 0.322395 15.9973C0.225558 14.2698 0.107201 12.5422 0.000799517 10.8147C-0.00398257 10.7406 0.0139503 10.6653 0.0211234 10.5971C0.841252 10.7597 1.6303 10.9498 2.4301 11.0658C4.02971 11.2989 5.6341 11.3252 7.24925 11.1901C8.53803 11.0813 9.81843 10.9354 11.0821 10.6676C15.0895 9.81644 18.7669 8.24432 21.9506 5.62493C23.6566 4.22139 25.0829 2.56798 26.1983 0.655146C26.2975 0.485382 26.4051 0.3204 26.533 0.11477C26.661 0.212803 26.7721 0.283339 26.8642 0.373003C29.6486 3.08086 32.9972 4.64461 36.8002 5.30573C38.3747 5.5795 39.9611 5.7134 41.5524 5.63808C45.4175 5.45517 49.0925 4.56451 52.4352 2.53809C53.3916 1.95827 54.2751 1.2804 55.0379 0.454299C55.1311 0.352679 55.1921 0.221172 55.3344 0C55.4575 0.439952 55.5256 0.701772 55.6034 0.9612C55.9811 2.21291 56.7307 3.23747 57.6166 4.1664C59.1182 5.7409 60.9043 6.92925 62.8303 7.91077C65.4652 9.25215 68.2388 10.1918 71.1583 10.6868C73.1034 11.0167 75.0557 11.2379 77.0331 11.116C78.3805 11.0335 79.7266 10.9223 81.0429 10.5935C81.1565 10.5648 81.2772 10.566 81.4386 10.5493V10.5469ZM7.42619 56.4801C7.37478 56.6522 7.34729 56.7036 7.34609 56.755C7.33294 58.8592 7.3425 60.9597 7.5577 63.0602C7.67605 64.2175 7.75496 65.3783 7.93787 66.5284C8.08851 67.4789 8.24751 68.4281 8.40293 69.3786C8.75083 71.5114 9.30436 73.594 9.92842 75.6598C11.0247 79.2882 12.5191 82.7421 14.3722 86.0477C15.7948 88.587 17.459 90.9542 19.373 93.136C20.2733 94.1617 21.1544 95.221 22.2578 96.0626C23.06 96.6747 23.7821 97.3908 24.5819 98.0053C26.606 99.5607 28.7926 100.844 31.1633 101.805C32.7342 102.441 34.3362 102.962 36.0147 103.22C37.0835 103.385 38.1523 103.61 39.2271 103.658C40.7884 103.727 42.3534 103.704 43.9135 103.458C45.0588 103.276 46.1946 103.076 47.3112 102.772C49.7764 102.101 52.0766 101.046 54.2488 99.7126C55.7982 98.7609 57.2615 97.6861 58.6101 96.4703C59.4792 95.6872 60.3328 94.8886 61.1243 94.0135C62.3485 92.6614 63.5105 91.2662 64.5638 89.7825C66.6452 86.8499 68.3213 83.6938 69.6878 80.3702C70.5785 78.2051 71.3376 75.9934 71.9234 73.7291C72.2964 72.2861 72.5858 70.8204 72.8942 69.3618C73.0687 68.5369 73.2254 67.706 73.3557 66.8727C73.4657 66.1722 73.5386 65.4656 73.6055 64.7591C73.6641 64.1493 73.6904 63.5372 73.7335 62.9251C73.8112 61.8001 73.9044 60.6752 73.963 59.549C73.9953 58.9333 73.9714 58.314 73.9678 57.6959C73.9678 57.5309 73.9499 57.366 73.9391 57.201C73.7478 57.4126 73.6211 57.6314 73.5218 57.8609C72.8631 59.3816 72.0777 60.8366 71.2516 62.2712C70.2748 63.9664 69.1941 65.5935 68.0272 67.1633C67.8001 67.4693 67.5383 67.7503 67.2513 68.091C66.9835 67.2661 66.7468 66.5392 66.5292 65.8697C67.3171 64.6742 68.0822 63.5432 68.8151 62.3919C70.392 59.9148 71.6532 57.2739 72.7531 54.5589C73.7896 51.9993 74.6612 49.3775 75.3355 46.6983C75.7922 44.8847 76.2022 43.0591 76.6015 41.2324C76.8621 40.0381 77.0833 38.833 77.2913 37.6279C77.4456 36.7336 77.5532 35.831 77.6775 34.932C77.7707 34.2661 77.8604 33.599 77.9489 32.9319C78.0577 32.1093 78.1784 31.2868 78.2669 30.4619C78.3697 29.4959 78.4402 28.5276 78.5311 27.5604C78.6399 26.4163 78.7702 25.2745 78.8635 24.1304C78.9328 23.2804 78.9555 22.4256 79.0009 21.5732C79.0057 21.474 79.0153 21.3747 79.0224 21.2755C79.0906 20.386 79.1731 19.4978 79.2245 18.6071C79.2879 17.4965 79.3225 16.3834 79.3739 15.2716C79.3799 15.1329 79.4253 14.9978 79.4361 14.8591C79.4851 14.2112 79.4803 13.5644 79.4648 12.8112C76.2967 13.3588 73.205 13.3492 70.1206 12.7801C67.0648 12.2158 64.1956 11.1506 61.4997 9.60124C58.7799 8.0375 56.3745 6.10553 54.4258 3.58896C53.0342 4.71395 51.4967 5.44202 49.9067 6.04934C47.3543 7.02369 44.6835 7.47202 41.9684 7.61428C40.7825 7.67645 39.5857 7.5569 38.395 7.52581C37.062 7.49114 35.7672 7.22693 34.4725 6.93044C32.2345 6.41757 30.1399 5.57472 28.2199 4.30866C27.878 4.08271 27.5253 3.87349 27.1726 3.65352C27.0459 3.78742 26.9371 3.87828 26.8582 3.99065C25.6388 5.73492 24.1193 7.18031 22.3929 8.40452C20.0664 10.0531 17.4853 11.1793 14.7464 11.9337C13.0703 12.3952 11.3666 12.7168 9.63552 12.9224C7.89842 13.128 6.16372 13.2799 4.41467 13.2631C3.79658 13.2571 3.17969 13.2595 2.56161 13.2643C2.41097 13.2655 2.26034 13.293 2.08101 13.3109C2.08101 13.629 2.07144 13.9063 2.0834 14.1825C2.11807 15.017 2.16111 15.8502 2.19937 16.6835C2.20415 16.7827 2.19937 16.8832 2.20415 16.9824C2.28186 18.2317 2.36435 19.4798 2.43608 20.7292C2.4851 21.5816 2.51379 22.4352 2.5628 23.2876C2.59628 23.8818 2.64171 24.4759 2.69551 25.0677C2.76007 25.7779 2.84853 26.4856 2.9119 27.1969C2.9657 27.7899 2.97885 28.3865 3.04699 28.9771C3.18687 30.1941 3.34946 31.4088 3.50727 32.6246C3.66986 33.8787 3.80256 35.1388 4.01058 36.3857C4.29512 38.0953 4.594 39.8049 4.9658 41.4978C5.56237 44.2116 6.24501 46.9063 7.11296 49.5484C8.1985 52.8541 9.49086 56.0736 11.1204 59.1557C12.2967 61.3805 13.6094 63.5169 15.1564 65.6186C14.9317 66.3061 14.6914 67.0401 14.426 67.8531C11.5316 64.3777 9.30436 60.5939 7.4238 56.4825L7.42619 56.4801Z" fill="white"/>
<path d="M45.477 19.5162C45.5775 19.7493 45.654 19.9956 45.7819 20.212C46.1358 20.8109 46.5315 21.3848 46.8722 21.9909C47.5549 23.2032 47.892 24.517 48.0044 25.9039C48.0869 26.9212 48.0235 27.9315 47.984 28.9453C47.9757 29.1557 47.9183 29.3649 47.8717 29.6494C47.305 28.155 46.7849 26.7419 46.2314 25.342C45.874 24.4381 45.4878 23.5427 44.9235 22.7393C44.7203 22.45 44.4991 22.1786 44.1333 21.9574C44.04 22.4596 44.1536 22.8816 44.2265 23.294C44.5003 24.8422 44.7406 26.3904 44.6462 27.9733C44.5971 28.7922 44.3281 29.8491 43.9814 30.4026C43.7925 26.5745 43.0131 23.3861 41.9765 22.3364C41.649 23.0932 41.7889 23.8559 41.7781 24.5816C42.0076 24.7789 42.2097 24.9522 42.4368 25.1471C42.2802 25.3575 42.1642 25.5129 41.9682 25.7771C41.9383 26.5136 41.9024 27.3648 41.8713 28.1204C42.0507 28.4515 42.1786 28.6858 42.2993 28.9082C42.1511 29.127 42.0399 29.2908 41.8773 29.5299V31.7559C42.1021 32.0891 42.2248 32.3896 42.2455 32.6574C42.1941 32.7159 42.1332 32.7913 42.0662 32.8618C42.0124 32.918 41.9526 32.9682 41.912 33.0065V36.0311C42.2659 36.3814 42.805 36.3264 43.0597 36.7759C42.9497 36.8309 42.8553 36.9086 42.7501 36.9242C41.5832 37.1047 40.4068 37.0569 39.2328 37.0318C39.13 37.0294 39.0284 36.9385 38.8515 36.8525C39.0093 36.6934 39.124 36.5691 39.2496 36.4567C39.3667 36.3515 39.4958 36.2583 39.6572 36.1304C39.6895 35.6402 39.7361 35.1261 39.7529 34.6108C39.7696 34.0944 39.7565 33.5779 39.7565 33.0543C39.6022 32.9252 39.454 32.7996 39.2412 32.6215C39.4289 32.4266 39.5975 32.2521 39.7828 32.0608V29.4534C39.5867 29.1963 39.4217 28.9811 39.2185 28.7157C39.448 28.534 39.6262 28.3917 39.8473 28.216V25.9134C39.7194 25.8309 39.5508 25.7233 39.4934 25.6863C39.2878 25.0789 39.6943 24.8327 39.8892 24.4633C39.8892 23.8021 39.9836 23.1063 39.6883 22.3113C39.3691 23.2916 39.0451 24.156 38.8084 25.0431C38.4964 26.2099 38.2095 27.3875 37.9978 28.5758C37.8699 29.2908 37.7396 30.032 37.9333 30.7696C37.9524 30.8426 37.9357 30.9239 37.9357 31.0171C37.6213 30.9011 37.4957 30.6549 37.3762 30.4014C37.0295 29.6662 36.9302 28.8699 36.9219 28.0809C36.9075 26.8495 36.9625 25.6145 37.0402 24.3843C37.0773 23.7997 37.2351 23.2235 37.2925 22.6245C35.6331 24.6462 34.6384 27.0097 33.7741 29.4546C33.6151 27.7677 33.6916 26.1059 34.0287 24.4537C34.367 22.7991 35.0353 21.2688 35.7981 19.7601C34.0777 21.0871 32.7124 22.725 31.3555 24.4848C31.3268 23.3299 31.6173 22.3472 32.1219 21.4195C32.8535 20.0733 33.8518 18.9447 34.9995 17.9429C35.461 17.54 35.9308 17.1478 36.4461 16.7103C36.1651 16.5692 35.9368 16.6517 35.7156 16.6601C34.4997 16.7067 33.3927 17.1383 32.294 17.6105C31.7907 17.8269 31.2706 18.0038 30.7207 18.1365C31.5074 17.0379 32.5654 16.262 33.6545 15.5255C34.7628 14.7771 35.9726 14.2368 37.2985 13.8626C36.8442 13.2648 36.1484 12.9121 36.0216 12.1027C37.2411 12.4578 38.3577 12.954 39.4911 13.5517C40.2383 12.8882 40.3387 11.9007 40.726 10.9766C41.2473 11.8063 41.3991 12.7244 41.8199 13.4931C42.1571 13.6294 42.389 13.4549 42.6281 13.3186C43.129 13.0329 43.6144 12.7196 44.1297 12.4626C44.5828 12.2366 45.0658 12.0717 45.5356 11.8804L45.6193 12.0035C45.3491 12.2797 45.073 12.5511 44.8087 12.8332C44.5409 13.1201 44.2839 13.4178 43.9539 13.7872C44.2875 13.9211 44.5314 14.0311 44.7836 14.116C45.9349 14.5069 47.0396 14.9923 48.0641 15.6534C49.0086 16.262 49.8287 16.9984 50.5233 17.9668C49.9112 17.9261 49.3995 17.7432 48.913 17.5017C47.996 17.0462 47.03 16.7629 46.0174 16.6433C45.7448 16.6111 45.4663 16.6386 45.0694 16.6386C45.4197 16.9195 45.691 17.1407 45.966 17.3571C46.9714 18.1449 47.941 18.9674 48.6918 20.0171C49.5944 21.2808 50.1527 22.6927 50.4982 24.1955C50.5114 24.2516 50.4994 24.3126 50.4994 24.4824C50.0284 23.93 49.61 23.4483 49.2011 22.9581C48.8699 22.5612 48.54 22.1619 48.2267 21.7506C47.5286 20.8336 46.6247 20.1522 45.6851 19.5114C45.6408 19.4815 45.5727 19.4851 45.5153 19.4731C45.483 19.454 45.4507 19.4349 45.4185 19.4146C45.4376 19.4468 45.4579 19.4791 45.477 19.5114V19.5162Z" fill="white"/>
<path d="M40.4071 101.156C33.9178 101.069 27.7704 98.9423 22.534 94.4424C17.9408 90.496 14.9604 85.5489 13.931 79.5474C12.6172 71.8805 14.487 65.0027 19.4352 59.0143C23.6004 53.9728 28.9994 50.9457 35.3859 49.6593C37.5988 49.2134 39.8464 49.04 42.0999 49.168C49.462 49.5888 55.8162 52.3158 60.9653 57.6406C64.7109 61.5129 67.0529 66.1396 67.818 71.4824C68.7924 78.2825 67.2203 84.5004 63.1567 90.0381C59.3776 95.186 54.3158 98.5 48.1744 100.185C45.7618 100.846 43.2967 101.137 40.4071 101.156ZM40.853 50.0802C39.1924 50.0419 37.5474 50.2021 35.9203 50.4986C31.7001 51.2673 27.8386 52.892 24.4397 55.5198C18.8016 59.8799 15.4123 65.5514 14.628 72.6935C14.3232 75.4695 14.5001 78.2227 15.1935 80.9306C16.7501 87.0098 20.1621 91.829 25.2945 95.3881C31.3355 99.576 38.0471 100.976 45.286 99.8486C50.0298 99.1097 54.2775 97.2065 57.9741 94.1399C63.1364 89.8576 66.1981 84.3976 66.9895 77.7147C67.3494 74.6756 67.0852 71.6665 66.2471 68.7291C64.5985 62.9416 61.2474 58.3424 56.3267 54.9053C51.6868 51.663 46.5007 50.1088 40.8506 50.0813L40.853 50.0802Z" fill="white"/>
<path d="M42.3232 41.716C43.4853 42.8195 44.566 43.8452 45.6623 44.8853C46.1381 44.4526 46.5793 44.0533 47.0682 43.6085C47.2691 43.8034 47.4616 43.9899 47.6839 44.2051C47.2822 44.6534 46.9021 45.0778 46.4908 45.5369C46.9009 46.1394 47.3109 46.6786 48.0306 46.858C48.3092 46.5651 48.5507 46.2722 48.8316 46.0235C49.4222 45.4998 50.112 45.2392 50.9142 45.3217C51.4415 45.3755 51.8169 45.6039 51.9257 46.155C51.8611 46.7253 51.4773 47.0767 51.09 47.4222C50.882 47.6075 50.6512 47.7666 50.4516 47.9602C49.6733 48.7122 48.7611 48.8676 47.7509 48.5819C46.8267 48.3201 46.0867 47.7522 45.385 47.1246C45.2965 47.0457 45.2116 46.9632 45.0897 46.8484C44.6091 47.2393 44.1356 47.6243 43.6407 48.0272C43.4458 47.794 43.2474 47.5585 43.0441 47.317C43.4123 46.9656 43.8391 46.5579 44.3197 46.0988C43.1326 44.9834 41.912 44.0736 40.7344 43.0299C39.5938 44.0317 38.4772 45.0121 37.3307 46.0187C37.7647 46.5232 38.1759 47.0002 38.6159 47.5107C38.3708 47.7331 38.1544 47.9303 37.8675 48.1922C37.4419 47.7092 37.0354 47.2489 36.5895 46.742C36.3851 46.9393 36.2452 47.0684 36.1113 47.2035C35.6462 47.6745 35.1321 48.075 34.5177 48.3356C33.1093 48.9346 31.8349 48.6453 30.6705 47.7307C30.1958 47.3577 29.8204 46.8962 29.6256 46.2925C29.9041 45.7306 30.3238 45.3492 30.9801 45.2739C31.4129 45.2237 31.8218 45.3229 32.1744 45.5513C32.7555 45.9266 33.3078 46.3451 33.9474 46.7994C34.324 46.424 34.7544 45.9948 35.2146 45.5357C34.8106 45.0145 34.4268 44.5183 34.0096 43.9791C34.165 43.7831 34.3216 43.5882 34.526 43.3312C35.0317 43.8022 35.5052 44.2422 36.0133 44.7144C37.2243 43.8596 38.256 42.8195 39.3452 41.7435C38.849 41.3227 38.3899 40.9198 37.9177 40.536C36.2822 39.203 34.6073 37.9202 32.7913 36.8395C31.3531 35.9835 29.8539 35.2554 28.185 34.9673C27.4425 34.8394 26.6894 34.7676 25.9434 34.6612C25.513 34.5991 25.0862 34.5166 24.541 34.4233C25.4652 33.987 26.3295 33.8148 27.213 33.7443C30.2759 33.5004 33.0065 34.4747 35.5566 36.072C37.2351 37.1228 38.7295 38.4044 40.1223 39.8068C40.3315 40.0184 40.5287 40.2419 40.781 40.5133C40.9699 40.34 41.1277 40.2037 41.2771 40.0578C42.8218 38.5539 44.474 37.185 46.321 36.066C47.8238 35.155 49.4067 34.4257 51.1282 34.0432C53.1833 33.5865 55.2253 33.5602 57.2218 34.3492C57.3103 34.3839 57.394 34.4341 57.5482 34.5094C51.414 34.7497 46.5817 37.5389 42.328 41.716H42.3232Z" fill="white"/>
<path d="M40.9045 99.5784C40.3271 99.5784 39.7484 99.6107 39.1746 99.5712C38.3066 99.5115 37.4351 99.4445 36.5779 99.3034C34.9436 99.0345 33.3476 98.6088 31.7898 98.0362C29.137 97.0594 26.7053 95.7025 24.4924 93.9391C23.1641 92.8811 21.9435 91.7167 20.8723 90.4064C19.4772 88.7004 18.2924 86.8628 17.3874 84.8364C16.6916 83.2799 16.162 81.6767 15.8045 80.0221C15.5881 79.0226 15.4985 77.9945 15.398 76.9735C15.3203 76.1844 15.257 75.3858 15.2868 74.5956C15.3944 71.7753 15.9121 69.0376 16.9737 66.4051C17.8082 64.3356 18.8973 62.4192 20.2507 60.657C21.6231 58.8709 23.2156 57.3024 25.0196 55.9371C27.3951 54.139 29.9918 52.7916 32.824 51.8914C34.1773 51.461 35.5533 51.1394 36.9653 50.9422C38.4991 50.7282 40.0342 50.5644 41.5788 50.6397C42.6404 50.6911 43.7032 50.7772 44.7625 50.9314C46.3513 51.161 47.8995 51.5256 49.4154 52.0349C52.0408 52.916 54.4546 54.1928 56.677 55.8534C57.9084 56.7739 59.025 57.8116 60.0783 58.9211C61.2547 60.1608 62.2709 61.5297 63.1436 62.9978C64.1263 64.6512 64.9202 66.3919 65.4689 68.2414C65.8443 69.5098 66.1396 70.7902 66.2998 72.1089C66.4612 73.4335 66.5784 74.7582 66.5054 76.0876C66.3476 78.9891 65.7451 81.7914 64.5866 84.4694C63.7808 86.3308 62.7563 88.0619 61.5237 89.6628C60.4931 91.0005 59.3263 92.214 58.0435 93.3258C56.1761 94.9458 54.1186 96.2549 51.8794 97.2758C49.8482 98.2024 47.7297 98.8599 45.5192 99.2413C43.9866 99.5055 42.4527 99.6095 40.9057 99.5808L40.9045 99.5784ZM29.1143 59.0717L29.0999 59.0574C28.8548 59.5105 28.4173 59.7281 27.9725 60.0198C27.5816 59.5942 27.2098 59.1901 26.8571 58.8075C26.4781 58.829 26.3191 59.0287 26.2056 59.367C26.6395 59.8381 27.0783 60.3151 27.5398 60.8172C27.7777 60.755 28.0204 60.7526 28.1818 60.6367C28.7472 60.2326 29.2972 59.8034 29.828 59.3551C30.1663 59.0693 30.1878 58.7716 29.9583 58.3998C29.8878 58.2863 29.7838 58.193 29.7001 58.0962C29.186 58.0543 28.9421 58.5445 28.4878 58.6425C28.4029 58.523 28.3168 58.401 28.1889 58.2229C28.501 58.0029 28.7843 57.8033 29.0724 57.6C29.5913 57.8248 30.0695 58.0125 30.5298 58.2384C30.9625 58.4501 31.3547 58.4214 31.7743 58.193C32.5179 57.7877 33.2615 57.4004 34.0721 57.1135C36.0148 56.4272 38.0018 56.0016 40.0533 55.894C41.9912 55.7936 43.8981 56.0435 45.7727 56.5348C47.2563 56.9234 48.6706 57.4865 50.0204 58.2193C50.3312 58.3879 50.642 58.5935 51.0557 58.4369C51.1083 58.3891 51.1968 58.3341 51.2506 58.254C51.4502 57.9575 51.6499 57.6598 51.8304 57.3502C52.0683 56.9425 52.0444 56.5755 51.6833 56.279C51.3833 56.0327 51.0306 55.8283 50.6683 55.6848C49.9905 55.417 49.694 55.5784 49.4549 56.2575C49.2624 56.2778 49.0675 56.2969 48.8571 56.3184C48.722 56.4822 48.5881 56.6436 48.4423 56.8194C43.4139 54.8264 38.3796 54.836 33.2962 56.799C32.8299 55.6992 32.378 54.6304 31.9345 53.5819C31.5639 53.4803 31.308 53.5544 31.1096 53.882C31.5053 54.983 32.1401 55.9956 32.5143 57.1422C32.0804 57.3645 31.6966 57.5606 31.3308 57.7471C30.7533 57.4912 30.2046 57.2629 29.6714 57.0047C29.3629 56.8552 29.1083 56.8815 28.8429 57.086C28.5273 57.3275 28.1925 57.5438 27.8745 57.7818C27.6306 57.9647 27.4405 58.1906 27.4262 58.5923C27.6007 58.8123 27.8064 59.0729 27.9594 59.2654C28.4567 59.4686 28.7652 59.1769 29.1143 59.0705V59.0717ZM40.8902 92.9206C41.9219 92.9421 42.9405 92.8679 43.9638 92.7042C45.5276 92.4543 47.0483 92.0502 48.4877 91.4166C51.0449 90.2892 53.3069 88.7326 55.1515 86.5938C56.2419 85.329 57.1349 83.9541 57.8749 82.4585C58.8051 80.578 59.3144 78.585 59.4853 76.518C59.6108 74.9985 59.5594 73.4598 59.2522 71.9547C58.8648 70.0586 58.2264 68.2545 57.2437 66.5724C56.0207 64.4791 54.4581 62.7001 52.5369 61.2201C50.6074 59.734 48.4602 58.7095 46.1325 58.0328C45.0338 57.7124 43.9112 57.4781 42.7779 57.4016C41.9805 57.3478 41.1747 57.2856 40.3629 57.3454C39.4364 57.4135 38.5147 57.447 37.5905 57.5953C35.8869 57.8666 34.2717 58.3975 32.7116 59.104C31.6141 59.6001 30.6003 60.2409 29.6104 60.9344C28.3778 61.7975 27.3162 62.8388 26.3359 63.953C25.242 65.1976 24.4027 66.625 23.7081 68.141C22.6537 70.4423 22.2496 72.8693 22.1766 75.3703C22.1659 75.7421 22.24 76.1163 22.2854 76.4893C22.3739 77.2126 22.4277 77.943 22.5712 78.6556C22.9274 80.425 23.579 82.0939 24.4744 83.6565C25.132 84.8042 25.8959 85.8861 26.8093 86.8533C27.7239 87.8205 28.7006 88.7195 29.7981 89.4751C31.1311 90.392 32.5227 91.2086 34.0661 91.7226C34.9783 92.0263 35.8988 92.3156 36.8349 92.5344C37.8499 92.7723 38.8841 92.9349 39.9361 92.9241C40.2553 92.9206 40.5733 92.9241 40.8925 92.9241L40.8902 92.9206ZM32.8024 96.3696C32.8419 96.586 32.8861 96.7988 32.9196 97.0128C33.026 97.6883 33.3512 97.8616 34.035 97.5687C34.035 97.3296 34.0613 97.0726 34.0302 96.8227C33.9609 96.274 33.8533 95.7288 33.7804 95.1813C33.7015 94.5931 33.6668 93.9977 33.5724 93.4119C33.4731 92.8022 32.8873 92.5631 32.3649 92.8943C32.2477 92.9684 32.1401 93.058 32.0289 93.1405C31.2303 93.7275 30.4317 94.3157 29.6319 94.9015C29.4574 95.0295 29.2769 95.1478 29.143 95.2399C29.0067 95.5914 29.1214 95.8149 29.3593 95.9644C29.5973 96.1138 29.8555 96.0851 30.0898 95.9309C30.3182 95.7802 30.5417 95.62 30.7509 95.4754C31.4324 95.7731 32.0839 96.0576 32.8036 96.372L32.8024 96.3696ZM42.1203 94.4425C41.3134 94.391 41.2488 94.4305 40.9416 95.0713C40.6857 95.6069 40.4359 96.1461 40.1633 96.6745C39.8644 97.2531 39.5428 97.8186 39.2535 98.3494C39.3491 98.8001 39.6193 98.9029 39.9349 98.8922C40.4801 98.7224 40.4885 98.1617 40.8005 97.8377C41.5333 97.7923 42.2626 97.7469 42.9548 97.7038C43.2322 98.0565 43.4737 98.3638 43.6925 98.6423H44.2699C44.6477 98.2382 44.6537 98.1593 44.3966 97.766C43.7678 96.8036 43.1485 95.8364 42.5149 94.8764C42.4085 94.715 42.2519 94.5859 42.1192 94.4425H42.1203ZM44.6943 93.9846C44.6704 94.2285 44.6094 94.4245 44.6417 94.6039C44.8653 95.8388 45.0518 97.0846 45.4128 98.3446C45.7392 98.3136 46.0022 98.2884 46.2329 98.2669C46.4661 97.9011 46.3585 97.5927 46.2975 97.2854C46.2282 96.9363 46.1289 96.5896 46.1014 96.2381C46.0668 95.8077 46.3107 95.5172 46.7327 95.4383C46.9001 95.4072 47.0794 95.4335 47.23 95.4335C47.7812 96.0743 47.7106 96.9399 48.1577 97.5568C48.2486 97.5699 48.3072 97.5867 48.3658 97.5855C49.0209 97.5723 49.2194 97.2866 48.9946 96.6805C48.8296 96.2357 48.6766 95.785 48.4913 95.3487C48.2534 94.7856 47.8134 94.5704 47.2049 94.6361C46.6741 94.6935 46.2521 94.9613 45.8456 95.3271C45.7009 94.8441 45.573 94.4185 45.4427 93.9858H44.6955L44.6943 93.9846ZM55.8342 57.178C55.6537 56.8002 55.4504 56.5934 55.0392 56.6699C54.2609 57.6706 53.473 58.682 52.6744 59.7089C52.5262 59.6217 52.4317 59.5667 52.3504 59.5188C52.3337 59.3072 52.3205 59.1327 52.305 58.9307C52.1711 58.8589 52.036 58.7872 51.9212 58.7262C51.4885 58.9079 51.5626 59.2331 51.6152 59.648C51.822 59.8118 52.0611 60.0556 52.3457 60.2146C52.8131 60.4741 53.1526 60.3892 53.5041 59.9911C53.687 59.7831 53.858 59.5631 54.0349 59.3491C54.6279 58.633 55.2221 57.9169 55.8354 57.1792L55.8342 57.178ZM48.6862 92.6791C48.514 93.0329 48.557 93.2756 48.6658 93.5219C48.8021 93.8292 48.9253 94.1424 49.058 94.4508C49.3855 95.2124 49.7155 95.9739 50.0275 96.6948C50.4711 96.9507 50.752 96.7725 51.0916 96.3935C50.6767 95.1024 49.945 93.914 49.358 92.6312C49.0986 92.6492 48.893 92.6635 48.6862 92.6779V92.6791ZM35.7901 98.0888C35.8355 97.9609 35.9036 97.815 35.9371 97.662C36.1583 96.6374 36.3771 95.6129 36.5863 94.5859C36.7022 94.0192 36.5504 93.8614 35.8187 93.8758C35.3585 95.1275 35.0943 96.4748 34.732 97.7552C35.0656 98.2932 35.2198 98.3387 35.7889 98.0876L35.7901 98.0888ZM54.2334 61.354C55.3094 60.3557 56.2359 59.3694 57.1373 58.3783C57.05 58.0017 56.8277 57.8391 56.524 57.7327C56.4535 57.7877 56.3841 57.8284 56.3327 57.8846C55.5449 58.7489 54.7582 59.6145 53.9787 60.486C53.8951 60.5805 53.8652 60.7227 53.7707 60.926C53.901 61.0467 54.0278 61.1639 54.2322 61.3528L54.2334 61.354ZM52.0516 95.7288C52.58 95.8687 52.8561 95.7025 53.0414 95.3594C52.9853 94.88 51.9894 93.1955 51.5279 92.7843C51.1884 92.8138 50.9317 93.0042 50.758 93.3557C51.1824 94.134 51.6248 94.9458 52.0516 95.7288ZM52.4365 58.8338C52.9087 58.5003 54.3541 56.5014 54.4713 56.0494C54.2577 55.8215 53.9959 55.7163 53.6858 55.7338C53.112 56.6006 52.5238 57.4889 51.9105 58.4166C52.1245 58.5863 52.2871 58.7155 52.4377 58.8338H52.4365ZM39.0909 97.1109C38.957 97.0021 38.8422 96.8323 38.7 96.806C38.1237 96.6996 37.5403 96.6374 36.9736 96.5609C36.8708 96.7235 36.8098 96.8204 36.7214 96.959C36.8338 97.075 36.921 97.2495 37.0442 97.2806C37.6359 97.4325 38.2385 97.546 38.8841 97.4516C38.9415 97.3571 39 97.2603 39.0921 97.1097L39.0909 97.1109ZM50.2882 92.4495C50.5452 92.7018 50.7867 92.648 50.9935 92.4698C51.2039 92.2893 51.1991 92.067 51.0162 91.8613C50.4304 91.7824 50.3169 91.8721 50.2882 92.4483V92.4495ZM54.5861 55.7793C54.7152 55.686 54.8431 55.5951 55.0344 55.4589C54.8563 55.3058 54.72 55.1887 54.5634 55.0548C54.3852 55.1958 54.2465 55.3046 54.0816 55.4349C54.2716 55.5641 54.4151 55.6621 54.5861 55.7793ZM29.9966 60.0843C29.6626 59.9162 29.3992 59.9911 29.2063 60.3091C29.2673 60.3796 29.3378 60.4621 29.4466 60.5888C29.6534 60.3988 29.7993 60.2649 29.9966 60.0843ZM29.2924 60.6008C29.2015 60.4824 29.1346 60.3952 29.0868 60.3318C28.7568 60.4693 28.5643 60.5817 28.5906 60.8973C28.9206 61.1197 29.0832 60.9092 29.2936 60.6008H29.2924Z" fill="white"/>
<path d="M40.4537 58.5168C40.5231 58.9807 40.5864 59.4086 40.657 59.8797H41.2942C41.3552 59.3883 41.4149 58.9017 41.4831 58.3554C43.8 58.347 45.9914 58.8264 48.0967 59.7051C50.6755 60.7823 52.8573 62.3927 54.635 64.7048C53.6404 64.8375 52.727 64.9583 51.8244 65.079C50.3192 63.9086 48.8152 62.8051 47.1236 61.8846C47.0745 62.0137 47.0351 62.1141 46.9992 62.2157C46.9669 62.3066 46.9371 62.3987 46.8833 62.5577C48.3573 63.3168 49.7143 64.2362 50.9504 65.3779C51.1345 67.219 51.1692 69.0816 50.9301 71.0208C49.4405 71.5444 47.9305 72.0752 46.3883 72.6168C45.8396 72.2557 45.2932 71.8971 44.6799 71.493C44.3081 72.6598 44.069 73.8219 43.7797 74.9708C43.4928 76.1113 43.1783 77.2435 42.8747 78.3888C43.274 79.0559 43.7068 79.6704 44.4014 80.0948C44.8174 80.3494 45.1498 80.7463 45.5096 81.0883C46.3453 81.8821 47.1762 82.6819 48.0262 83.496C47.9533 83.6586 47.9018 83.8057 47.8253 83.9396C47.3543 84.7681 46.8916 85.6037 46.3943 86.4167C46.1958 86.7407 46.1133 87.0659 46.1265 87.4341C46.1373 87.7102 46.1289 87.9864 46.1289 88.2937C45.8455 88.3941 45.5933 88.4826 45.2825 88.5925V82.6197C44.4779 82.5743 43.7151 82.5934 42.889 82.6078C42.8388 84.7705 42.889 86.8937 42.8591 89.072C42.6415 89.1138 42.4419 89.1532 42.1645 89.2059V82.6209H39.7544V89.1688H39.0657C39.006 88.4563 39.0454 87.7461 39.0382 87.0384C39.0311 86.3019 39.037 85.5643 39.037 84.8278C39.037 84.0914 39.037 83.3992 39.037 82.7022C38.5863 82.5576 37.4876 82.5312 36.6317 82.64C36.597 83.2952 36.6197 83.9659 36.6161 84.6342C36.6125 85.2917 36.6161 85.9492 36.6161 86.6068C36.6161 87.2643 36.6161 87.9565 36.6161 88.6679C36.2503 88.6858 35.9801 88.5208 35.68 88.4108C35.5138 87.9147 35.7207 87.4257 35.7015 86.8794C35.142 85.8428 34.5586 84.7597 33.9513 83.6335C35.0835 82.4428 36.2192 81.2496 37.3263 80.0852C37.6203 80.0063 37.8678 79.9382 38.132 79.8676C38.3544 79.4659 38.5636 79.0595 38.8003 78.6709C38.9809 78.3744 38.994 78.072 38.9115 77.7539C38.5038 76.177 38.0938 74.6002 37.6849 73.0245C37.5773 72.6084 37.4697 72.1924 37.349 71.7237C36.8134 72.0884 36.3113 72.4291 35.7924 72.783C34.0673 72.2091 32.3433 71.6353 30.617 71.0614C30.7138 69.2036 30.8095 67.3804 30.9111 65.4257C31.8974 64.119 33.3954 63.2989 34.9161 62.4955C34.8934 62.3078 34.873 62.1344 34.8432 61.8906C33.1551 62.682 31.6403 63.6324 30.3026 64.9642C29.327 64.9212 28.318 64.8758 27.2109 64.8268C27.3879 64.5841 27.4955 64.4059 27.633 64.2517C30.3934 61.1625 33.7935 59.203 37.8965 58.5371C38.7095 58.4056 39.5511 58.3004 40.4573 58.518L40.4537 58.5168ZM35.0607 60.6245C36.585 66.5734 38.0866 72.4363 39.6037 78.3613H42.3869C42.4264 78.2166 42.4837 78.0301 42.5292 77.84C42.8795 76.3922 43.2333 74.9445 43.5752 73.4955C43.9949 71.7201 44.3954 69.9412 44.821 68.167C45.3518 65.9565 45.9029 63.7496 46.4385 61.5403C46.5091 61.2486 46.5425 60.9485 46.5975 60.6257H35.0595L35.0607 60.6245ZM44.8425 81.9036C44.0917 80.9544 43.4174 80.1031 42.7276 79.2316H39.2283C38.523 80.0565 37.7674 80.94 36.9437 81.9036H44.8413H44.8425Z" fill="white"/>
<path d="M51.696 71.7109C52.9465 72.9208 54.1612 74.096 55.4236 75.3178C55.3101 77.453 55.1857 79.6062 53.8623 81.4556C52.0881 81.9841 50.363 82.4969 48.6175 83.0158C47.3347 81.8418 46.0758 80.6893 44.8086 79.5285C46.303 77.7376 46.6354 75.6263 46.6306 73.3799C48.2768 72.7176 49.9697 72.2441 51.696 71.7109Z" fill="white"/>
<path d="M28.1226 81.6142C26.9187 79.6954 26.5552 77.6104 26.5002 75.4465C27.7603 74.153 28.9953 72.8869 30.253 71.5958C31.9315 72.1971 33.5885 72.7913 35.2909 73.401C35.1008 75.5709 35.817 77.5005 36.8834 79.3977C35.7094 80.61 34.5234 81.8354 33.3231 83.0764C31.5956 82.591 29.8788 82.108 28.1238 81.6142H28.1226Z" fill="white"/>
<path d="M33.4258 90.4575C34.1048 89.8693 34.7624 89.2978 35.4319 88.7168C35.8132 88.8615 36.1815 89.0013 36.6023 89.1603V90.6153C37.1068 90.7564 38.4051 90.7659 39.0017 90.6392C39.022 90.3678 39.0435 90.0785 39.0675 89.7569C39.2898 89.7772 39.4811 89.7952 39.7094 89.8155C39.7322 90.1012 39.7537 90.3714 39.7776 90.6846H42.1256C42.1447 90.4097 42.1627 90.1574 42.1866 89.8286C42.3814 89.8191 42.5859 89.8095 42.8274 89.7975C42.8525 90.0904 42.8752 90.3415 42.8967 90.5854C43.308 90.7396 44.3947 90.7731 45.2519 90.6512V89.2464C45.6548 89.0671 46.0134 88.9081 46.4175 88.7276C46.7535 88.9965 47.1026 89.2835 47.4612 89.5608C47.8043 89.8262 48.1558 90.0797 48.5193 90.3499C48.218 90.7898 47.8067 90.9931 47.399 91.182C46.457 91.6195 45.4563 91.8718 44.4341 92.038C42.9947 92.2735 41.5422 92.338 40.0896 92.2723C38.3179 92.1934 36.5676 91.9614 34.8963 91.323C34.3595 91.1186 33.8394 90.8843 33.427 90.4563L33.4258 90.4575Z" fill="white"/>
<path d="M25.8562 75.3007C25.8191 77.62 26.3451 79.7971 27.4115 81.8438C27.029 82.8301 26.6476 83.8176 26.2674 84.7991C24.2219 82.1547 22.7072 77.3702 23.4424 73.0723C24.2506 73.8183 25.0301 74.538 25.8562 75.3007Z" fill="white"/>
<path d="M56.1348 75.3973C56.9729 74.5497 57.7105 73.8049 58.4805 73.0254C58.9348 77.1978 58.1505 81.045 55.6232 84.5706C55.1784 83.5926 54.7719 82.6996 54.3535 81.7778C54.9393 80.7987 55.4271 79.7669 55.7176 78.6443C56.0021 77.5409 56.1109 76.4207 56.1348 75.3973Z" fill="white"/>
<path d="M50.6367 57.7291C50.7563 57.2222 50.5542 56.8684 50.1621 56.5695C50.2601 56.4595 50.3343 56.3746 50.4215 56.2754C50.7312 56.3148 50.9906 56.4153 51.1759 56.7751C51.0085 57.0704 50.822 57.3992 50.6355 57.728L50.6367 57.7291Z" fill="white"/>
<path d="M49.6913 57.4167C49.5371 57.3294 49.3984 57.2517 49.2598 57.174C49.2622 57.1309 49.2645 57.0879 49.2681 57.0449C49.3781 57.009 49.4989 56.9265 49.5945 56.9492C49.7643 56.9875 49.8635 57.1142 49.6925 57.4167H49.6913Z" fill="white"/>
<path d="M31.3711 94.9497C31.8218 94.5504 32.2056 94.2108 32.6682 93.8008C32.7101 94.4213 32.7471 94.9533 32.789 95.5761C32.2761 95.349 31.8421 95.1577 31.3711 94.9497Z" fill="white"/>
<path d="M41.1094 97.0597C41.3222 96.5217 41.5242 96.0136 41.7502 95.4434C42.0251 95.9562 42.2798 96.4321 42.556 96.9485C42.0646 97.1565 41.5983 97.037 41.1094 97.0609V97.0597Z" fill="white"/>
</svg>
