<svg width="133" height="50" viewBox="0 0 133 50" fill="none" xmlns="http://www.w3.org/2000/svg">
<g clip-path="url(#clip0_14_1214)">
<path d="M61.2788 15.6679V9.65023C61.5944 9.60388 61.9142 9.58281 62.2087 9.58281C64.8384 9.58281 65.9282 11.083 65.9282 12.7855C65.9282 14.3995 65.0194 15.6679 62.6421 15.6679H61.283H61.2788ZM67.9689 20.0716C66.8581 17.2777 66.4036 16.279 64.0222 16.0093C66.8118 15.6679 68.1498 14.2141 68.1498 12.284C68.1498 10.5815 66.9464 8.92541 62.6168 8.92541H58.1947V9.2204C58.8974 9.44796 59.032 10.0843 59.032 11.6056V20.9819C59.032 22.5032 58.8721 23.1395 58.1947 23.367V23.662H62.0951V23.367C61.3924 23.1395 61.2578 22.5032 61.2578 20.9819V16.3506H62.5032C64.3377 16.3506 64.4513 17.1471 65.722 20.2107C66.7192 22.6633 67.1484 23.7969 68.8945 23.7969C69.2564 23.7969 69.9128 23.7758 70.4135 23.6367V23.3418C70.2998 23.3628 70.2115 23.3628 70.0979 23.3628C69.3279 23.3628 69.1007 22.8614 67.9689 20.0716Z" fill="white"/>
<path d="M129.408 17.5306C129.387 19.4142 128.23 22.322 126.164 22.322C125.188 22.322 124.216 21.7531 124.216 20.3708C124.216 18.622 126.164 18.0784 127.161 17.8045L129.403 17.1471V17.5348L129.408 17.5306ZM131.516 20.9819V16.9195C131.516 14.3531 130.312 12.992 127.775 12.992C125.869 12.992 124.237 13.9697 123.084 15.4235L123.286 15.6047C124.35 14.311 125.507 13.8095 126.685 13.8095C128.251 13.8095 129.382 14.3995 129.408 16.4897L127.072 17.1724C124.464 17.8972 122.267 18.9676 122.267 21.1252C122.267 22.8951 123.559 23.8727 125.124 23.8727C127.3 23.8727 128.819 22.0354 129.408 19.6039V22.8276C129.408 23.3713 129.702 23.6662 130.245 23.6662H132.353V23.3713C131.65 23.1226 131.516 22.4863 131.516 20.9861" fill="white"/>
<path d="M75.1092 13.7842C76.5145 13.7842 77.6253 14.6481 77.9451 16.6245H72.1849C72.5005 14.7156 73.9521 13.7842 75.1092 13.7842ZM76.4682 22.1365C73.7922 22.1365 72.1134 20.3413 72.1134 17.2777H80.1162C80.1162 14.9178 78.5972 12.9878 75.7613 12.9878C72.9254 12.9878 70.2284 15.2128 70.2284 18.799C70.2284 22.3852 72.8792 23.8643 75.1933 23.8643C77.6211 23.8643 79.2957 22.1829 80.2508 20.708L80.0699 20.5057C79.2073 21.4834 78.0082 22.1408 76.464 22.1408" fill="white"/>
<path d="M115.779 13.7842C117.185 13.7842 118.295 14.6481 118.615 16.6245H112.88C113.175 14.7156 114.626 13.7842 115.784 13.7842H115.779ZM117.117 22.1365C114.441 22.1365 112.763 20.3413 112.763 17.2777H120.765C120.765 14.9178 119.246 12.9878 116.411 12.9878C113.575 12.9878 110.878 15.2128 110.878 18.799C110.878 22.3852 113.528 23.8643 115.842 23.8643C118.27 23.8643 119.945 22.1829 120.9 20.708L120.719 20.5057C119.882 21.4834 118.678 22.1408 117.113 22.1408" fill="white"/>
<path d="M89.8019 21.4791C89.1918 22.1365 88.3966 22.638 87.4667 22.638C84.4499 22.638 83.7472 19.0729 83.7472 17.0754C83.7472 15.8491 84.4499 13.8053 86.6715 13.8053C88.1904 13.8053 89.8019 15.4614 89.8019 16.8268V21.4834V21.4791ZM91.952 20.9819V6.80995L91.75 6.64981L88.9856 7.87611V8.17109C89.5074 8.39865 89.8229 8.60093 89.8229 9.85251V13.5525C89.1876 13.2364 88.4639 13.0299 87.5803 13.0299C83.9324 13.0299 81.7318 15.5963 81.7318 18.8201C81.7318 21.4328 83.5453 23.8854 86.196 23.9275C87.7612 23.9739 89.0319 22.8824 89.8229 21.9511V22.8361C89.8229 23.3797 90.1175 23.6747 90.6602 23.6747H92.8145V23.3797C92.0908 23.1058 91.952 22.4695 91.952 20.9735" fill="white"/>
<path d="M104.583 15.078C102.904 14.3953 100.775 13.6494 100.775 11.7868C100.775 10.2191 102.475 9.49431 103.767 9.49431C105.715 9.49431 107.667 10.5141 108.458 12.4694L108.685 12.3767L108.593 9.65023C107.503 9.10662 106.123 8.76528 104.558 8.76528C101.272 8.76528 99.1637 10.3793 99.1637 12.9878C99.1637 15.4193 100.977 16.1441 103.131 17.0501C104.81 17.7328 107.528 18.6852 107.528 20.7501C107.528 22.3177 105.896 23.0426 104.739 23.0426C102.382 23.0426 100.136 21.7025 99.1847 19.1614L98.9113 19.2078L99.0038 22.3641C100.068 23.1606 102.021 23.8643 104.196 23.8643C106.624 23.8643 109.253 22.2756 109.253 19.3932C109.274 16.8521 106.737 15.8955 104.583 15.078Z" fill="white"/>
<path d="M98.9155 42.0986C100.594 42.0986 101.524 39.7387 101.545 38.2175V37.9014L99.7318 38.4239C98.9365 38.6515 97.3503 39.0813 97.3503 40.5141C97.3503 41.6477 98.1455 42.1028 98.9155 42.1028M101.545 42.5074V39.8947C101.07 41.8711 99.8454 43.3671 98.0782 43.3671C96.8075 43.3671 95.764 42.5706 95.764 41.121C95.764 39.3721 97.5565 38.5082 99.6644 37.9183L101.545 37.3746C101.524 35.6932 100.594 35.217 99.3236 35.217C98.3727 35.217 97.4429 35.6258 96.5593 36.6709L96.3994 36.5108C97.3503 35.3308 98.6673 34.5596 100.207 34.5596C102.269 34.5596 103.245 35.6722 103.245 37.7623V41.0535C103.245 42.2798 103.359 42.8024 103.927 42.9836V43.2322H102.227C101.798 43.1858 101.545 42.9372 101.545 42.5074Z" fill="white"/>
<path d="M71.0067 42.9583C71.5747 42.7771 71.6883 42.2545 71.6883 41.0282V31.968C71.6883 30.9692 71.4401 30.788 71.0067 30.6068V30.3582L73.2493 29.3595L73.4303 29.4943V41.0282C73.4303 42.2545 73.5439 42.7771 74.1119 42.9583V43.2069H71.0067V42.9583Z" fill="white"/>
<path d="M105.172 42.9583C105.74 42.7771 105.854 42.2545 105.854 41.0282V31.968C105.854 30.9692 105.605 30.788 105.172 30.6068V30.3582L107.415 29.3595L107.596 29.4943V41.0282C107.596 42.2545 107.709 42.7771 108.277 42.9583V43.2069H105.172V42.9583Z" fill="white"/>
<path d="M66.8119 37.8508V38.0995C67.5356 38.3017 67.6954 38.7821 67.6954 40.1222V41.6898C67.3084 42.44 66.2901 42.8024 65.2256 42.8024C64.1611 42.8024 62.8441 42.3472 61.9816 41.5086C60.6899 40.1222 59.9872 38.011 60.0082 36.0598C60.0293 33.2912 61.6408 31.6308 63.997 31.6308C65.7431 31.6308 67.5566 32.6759 68.1919 34.2646L68.3939 34.2183L68.3266 31.9722C67.443 31.3822 65.6758 31.1336 64.6323 31.1336C60.7993 31.1336 58.2158 33.9022 58.2158 37.1976C58.2158 40.944 60.7319 43.3965 64.6534 43.3965C66.0797 43.3965 68.1667 42.6928 69.4584 41.0114V37.855H66.8077" fill="white"/>
<path d="M80.3896 42.8234C79.1863 42.8234 78.2606 41.9595 77.8062 41.1884C77.2844 40.2571 76.9226 38.9423 76.9226 37.8719C76.9226 36.7383 77.4233 35.3982 78.6224 35.1033C79.8468 34.8083 81.0712 35.7396 81.6813 36.7594C82.2494 37.737 82.5902 39.0308 82.5902 40.0969C82.6112 40.9145 82.2494 42.8234 80.3896 42.8234ZM79.8006 34.5343C77.4654 34.5343 75.2438 36.3717 75.2438 39.1445C75.2438 42.0523 77.579 43.3671 79.8006 43.3671C81.8202 43.3671 84.3363 41.7109 84.3363 38.7821C84.3363 35.8534 81.9085 34.5343 79.8006 34.5343Z" fill="white"/>
<path d="M90.5046 43.0046C89.2129 43.0046 87.7403 41.5297 87.7403 40.1896V35.9671C88.3504 35.5794 88.9857 35.3982 89.5327 35.3982C92.0488 35.3982 92.7977 38.7821 92.7977 39.9621C92.7767 41.5044 92.297 43.0046 90.5088 43.0046M90.5719 34.5343C89.5958 34.5343 88.5986 34.9895 87.7361 35.5331V29.4943L87.5551 29.3595L85.3125 30.3582V30.6068C85.7417 30.788 85.9941 30.9692 85.9941 31.968V43.2069H86.1751L86.8777 42.0944C87.5131 42.8192 88.6028 43.3671 89.823 43.3671C92.6589 43.3671 94.4471 41.2769 94.4471 38.6684C94.4471 36.536 92.9955 34.5343 90.5719 34.5343Z" fill="white"/>
<path d="M2.65076 36.7592C5.57501 37.8254 8.61287 40.1179 8.68019 44.3193C9.26925 44.8208 9.85831 45.2717 10.4936 45.7057C10.4726 45.2506 10.4474 44.7955 10.4474 44.3446C10.38 38.8958 6.20615 35.6467 1.62832 34.5806C1.94389 35.3517 2.2847 36.0555 2.64655 36.7592M0 22.0479C0.475454 22.4777 0.92987 22.9581 1.38429 23.4091C1.85974 23.9105 2.29312 24.3193 2.65497 24.6143C3.97193 25.7057 5.60026 26.0007 7.19072 26.2957C8.91581 26.6117 10.3885 26.8857 11.1584 28.0909C11.5876 28.7483 11.6339 29.4773 11.6802 30.2696C11.7265 31.1335 11.8148 32.1322 12.3828 33.1309C13.1065 34.4499 13.8555 35.082 14.5119 35.6973C14.9873 36.1271 15.4207 36.5148 15.9172 37.1722C15.9635 37.2186 19.5651 42.031 17.1626 45.731C16.9607 46.0471 16.7545 46.2072 16.5525 46.2536C16.2117 46.2999 15.7825 45.9796 15.6437 45.8237C14.8948 45.0525 14.0785 41.5759 13.7629 39.3973V39.3509C13.0603 35.6973 9.63531 34.2182 6.87094 33.0171L6.41653 32.8149C3.74052 31.6307 1.13183 30.2443 0 27.9729C0.134642 29.1781 0.36185 30.4044 0.656379 31.538C2.08274 32.7432 3.87516 33.6493 5.68862 34.4457L6.14303 34.648C8.75172 35.7816 11.4698 36.9657 11.9915 39.667C12.1514 40.6868 12.9677 45.6172 14.373 47.0711C14.4866 47.1849 15.3492 48.0235 16.502 48.0235C16.5694 48.0235 16.6367 48.0235 16.7292 48.0024C17.251 47.956 18.021 47.6611 18.6563 46.7087C19.948 44.7112 20.1079 42.2375 19.157 39.511C18.4543 37.5599 17.3898 36.1271 17.3436 36.0808C16.7335 35.2843 16.1865 34.7871 15.69 34.3783C15.0546 33.8094 14.5119 33.3332 13.9228 32.267C13.561 31.6096 13.4936 30.927 13.4474 30.1558C13.4011 29.2455 13.3127 28.1794 12.6311 27.1343C11.453 25.297 9.43334 24.9303 7.48525 24.5679C6.05888 24.3193 4.72088 24.0454 3.74473 23.2742C3.47123 23.0466 3.0631 22.6379 2.63393 22.1828C1.91023 21.4326 1.115 20.6151 0.319774 20.0504C0.185133 20.6868 0.0715285 21.3694 0.00420756 22.0479M33.0546 21.0239C32.3519 23.4975 33.53 26.1566 34.5272 27.3576C35.2762 28.2679 36.1135 28.9716 36.955 29.6754C37.1359 29.8102 37.3168 29.9914 37.4978 30.1305C39.084 31.5169 40.1064 33.2868 40.7628 35.8996C41.3729 38.3522 41.9409 40.6699 42.0798 43.1436C42.0798 43.2363 42.0798 43.3458 42.1008 43.4596C42.6899 42.916 43.2327 42.3471 43.7544 41.7571C43.5272 39.6248 43.0307 37.6021 42.4837 35.4655C41.7348 32.4693 40.5566 30.4002 38.6506 28.7651C38.4697 28.605 38.2635 28.4491 38.0826 28.289C37.2874 27.6316 36.5426 26.9952 35.9073 26.2241C35.1373 25.3138 34.2958 23.2278 34.7965 21.5001V21.479C34.9311 20.9565 35.4318 20.1389 36.5216 20.1389H36.6352C37.4978 20.1853 38.8568 20.9354 40.3294 24.1802L40.3757 24.294C43.3463 30.6952 46.2032 32.9666 48.3575 34.0791C48.5847 33.5355 48.7656 32.9666 48.9465 32.3766C47.0405 31.3315 44.6169 29.2203 41.9872 23.5439L41.9409 23.4512C40.443 20.1811 38.6759 18.4786 36.7278 18.3648H36.5258C34.6198 18.3648 33.4206 19.7259 33.0588 21.0197M1.69985 15.5329C2.92425 15.7141 4.16969 15.8954 5.32677 16.2578C9.36182 17.5304 11.6297 19.8903 13.0813 24.4078C13.8302 26.7466 15.1893 28.8368 16.8681 30.2906C17.617 30.927 18.4543 31.3568 19.2959 31.7445C19.8176 31.9931 20.2931 32.2207 20.7475 32.5157C22.7881 33.8094 24.0336 36.2831 23.8316 38.6682C23.697 40.6446 22.6998 42.4356 21.6563 44.3656C21.4543 44.7533 21.2271 45.1368 21.0462 45.4992C20.4361 46.6328 19.7755 48.0867 19.481 49.6543C20.049 49.7892 20.6381 49.8819 21.2271 49.9957C21.4543 48.9042 21.9088 47.7032 22.6325 46.3421C22.8344 45.9796 23.0406 45.5919 23.2425 45.2295C24.3323 43.2321 25.4641 41.1882 25.6451 38.8031C25.8723 35.7605 24.286 32.6252 21.7236 31.0155C21.2019 30.6741 20.6339 30.4044 20.1121 30.1516C19.3632 29.7892 18.6395 29.4478 18.0715 28.9716C16.5988 27.7243 15.4628 25.908 14.8064 23.8852C13.6493 20.3201 11.7223 16.4137 5.92003 14.5974C4.80924 14.2561 3.63112 14.0538 2.54136 13.8937C2.20055 14.3951 1.93127 14.9388 1.70406 15.5287M8.20895 6.37997C10.2496 8.2426 12.244 10.4887 13.1528 13.1688C13.4263 14.0074 13.6072 14.8966 13.7882 15.8237C14.1037 17.345 14.3983 18.9126 15.2145 20.3412C16.5988 22.7727 19.0224 24.1549 21.3576 25.495C23.5792 26.7677 25.6871 27.9687 26.8232 29.924C28.2075 32.2628 27.9129 35.1242 27.6184 38.1204C27.3239 41.163 27.0083 44.2982 28.4347 47.0879C28.8638 47.9518 29.4529 48.723 29.9999 49.4268C30.0462 49.4942 30.1345 49.5869 30.1808 49.6543C30.7909 49.5195 31.4262 49.3593 32.0406 49.1781C31.8386 48.8831 31.6114 48.6092 31.4305 48.3395C30.9087 47.6358 30.387 46.9784 30.0251 46.2493C28.847 43.9105 29.1163 41.1629 29.415 38.2805C29.7306 35.1242 30.0504 31.8541 28.3968 28.9927C27.0125 26.6075 24.61 25.2253 22.2748 23.9063C20.0322 22.6126 17.92 21.4074 16.7882 19.4099C16.1065 18.23 15.8372 16.8688 15.5638 15.415C15.3828 14.4626 15.1767 13.4849 14.8611 12.5325C13.8639 9.55739 11.777 7.17222 9.62268 5.15368C9.10095 5.58351 8.64653 5.97121 8.21736 6.37997M39.9928 9.51525C40.9017 11.243 44.6422 15.7141 46.8638 17.2818C46.9311 17.3281 47.0237 17.4166 47.1583 17.5093C47.8399 18.0108 48.5426 18.487 49.199 18.9168C48.9718 17.9855 48.6772 17.0542 48.3154 16.1693C48.2691 16.1229 48.2228 16.1018 48.1807 16.0555C48.0461 15.9628 47.9535 15.8743 47.8652 15.8279C45.9171 14.4415 42.3575 10.1979 41.5412 8.69771C40.9311 7.53884 40.523 6.37997 40.1822 5.22532C39.4795 4.6817 38.7095 4.13387 37.9395 3.68297C38.4613 5.56666 38.9578 7.54306 40.0013 9.51946M13.5105 2.72637C14.3057 4.2013 15.143 5.63408 16.0266 7.04158C16.4558 7.72426 16.9102 8.36059 17.5666 8.87892C18.2482 9.40147 19.0182 9.67538 19.7419 9.94508C20.2636 10.1263 20.7601 10.3075 21.1935 10.5561C22.805 11.5549 23.1668 13.5523 23.596 15.8448C23.9116 17.5936 24.2313 19.3888 25.1612 20.8848C25.8639 22.0184 26.84 22.9076 27.7909 23.7462C28.9228 24.7449 29.9915 25.6973 30.4206 26.9489C30.5553 27.2902 30.6479 27.7201 30.7615 28.1288C30.8961 28.6724 31.0097 29.2203 31.2159 29.7428C31.9396 31.6518 33.5511 32.4904 34.4809 32.9919L34.5735 33.0382C38.2677 35.0146 37.6576 38.2173 36.9297 41.9173C36.6352 43.4175 36.3196 45.0062 36.408 46.4348C36.429 46.7761 36.4543 47.0922 36.5216 47.3661C37.0896 47.0711 37.6324 46.755 38.1752 46.4137V46.3673C38.1289 45.141 38.4024 43.7546 38.6969 42.2586C39.3996 38.605 40.2832 34.0833 35.4318 31.4748L35.3182 31.4284C34.4557 30.9733 33.3701 30.4086 32.8694 29.0896C32.7348 28.6809 32.5959 28.2047 32.4823 27.7032C32.3687 27.2481 32.2551 26.7719 32.1205 26.342C31.5314 24.6396 30.2397 23.5018 28.9901 22.3892C28.0812 21.5928 27.2439 20.8469 26.6759 19.9367C25.927 18.7104 25.6324 17.0753 25.3379 15.5077C24.8835 13.0087 24.4291 10.4213 22.1402 9.01377C21.5511 8.65136 20.9621 8.44487 20.3477 8.21731C19.7377 7.98975 19.1233 7.78748 18.6689 7.42085C18.2398 7.07951 17.8737 6.55696 17.5371 6.03442C16.6746 4.71541 15.8835 3.3332 15.1093 1.94677C14.5666 2.1954 14.0196 2.44824 13.4978 2.71794M34.3 8.81149C34.6408 10.1979 34.9816 11.6265 35.6843 12.9666C36.5006 14.4879 37.7712 15.8743 39.6057 17.2565C40.5356 17.9603 41.5118 18.5755 42.4627 19.1865C44.1415 20.2527 45.7277 21.2514 47.0405 22.5915C48.1976 23.7715 49.1485 25.2042 49.9185 26.9531C49.9647 26.342 49.9858 25.7268 49.9858 25.0905C49.9858 24.4541 49.9647 23.9105 49.9395 23.3206C49.464 22.6168 48.9423 21.9594 48.307 21.3442C46.8343 19.8692 45.1092 18.7567 43.4094 17.6906C42.5005 17.1006 41.5286 16.5106 40.666 15.8279C39.0335 14.6227 37.9438 13.3964 37.2663 12.128C36.6773 11.0155 36.3575 9.74281 36.0419 8.40273V8.38166C35.5412 6.38419 34.9522 3.88524 33.8203 1.61385C33.0041 1.2978 32.1668 1.04495 31.3253 0.796324C32.7979 3.02136 33.5469 5.76893 34.2958 8.81149M24.2355 -0.000136338C24.3281 0.134714 24.4165 0.248494 24.5301 0.387559C25.1402 1.15873 25.8681 1.84141 26.5707 2.49881C27.9087 3.74618 29.1794 4.93033 29.3814 6.47268C29.4277 6.90252 29.4277 7.33657 29.4277 7.81276C29.4066 8.1541 29.4066 8.49544 29.4277 8.83257C29.4739 10.1263 30.1976 11.3989 30.9003 12.6252C32.192 14.8966 32.4192 15.7142 31.4683 16.3926C31.1065 16.6412 30.7194 16.6202 30.4501 16.5738C29.9284 16.46 29.4529 16.1187 29.1584 15.6636C28.7292 14.9388 28.5483 14.0285 28.3884 13.0761C28.3211 12.6674 28.2538 12.2586 28.1612 11.8498C27.4585 8.85364 25.7797 6.40104 23.5581 5.08204C22.9228 4.69434 22.38 4.39936 21.9045 4.15073C19.7966 2.99186 19.6156 2.87808 19.1149 0.720471C18.5259 0.855321 17.9579 1.01546 17.4151 1.19666C18.0967 3.99059 18.7068 4.39936 21.063 5.71415C21.5175 5.96278 22.0602 6.25777 22.6745 6.62439C24.488 7.69055 25.8723 9.73438 26.4361 12.2544C26.5287 12.6168 26.5707 12.9792 26.6633 13.388C26.8442 14.4794 27.0504 15.5667 27.6605 16.5907C28.1822 17.4756 29.0868 18.112 30.0882 18.3184C30.3155 18.3648 30.5637 18.3859 30.7909 18.3859C31.401 18.3859 31.9943 18.2047 32.4908 17.8633C34.9185 16.1819 33.488 13.6155 32.4445 11.7782C31.8554 10.7331 31.2664 9.64588 31.199 8.782C31.178 8.48701 31.199 8.19203 31.199 7.87176C31.2201 7.34921 31.2453 6.78031 31.1528 6.21562C30.8119 4.05802 29.293 2.60416 27.7741 1.22195C27.366 0.834251 26.9578 0.47184 26.596 0.0883592C26.028 0.0420044 25.4641 0.0420044 24.8961 0.0420044C24.6689 -0.00435041 24.4669 -0.00435041 24.2397 -0.00435041" fill="url(#paint0_linear_14_1214)"/>
</g>
<defs>
<linearGradient id="paint0_linear_14_1214" x1="5.65495" y1="44.8587" x2="44.2655" y2="5.5337" gradientUnits="userSpaceOnUse">
<stop stop-color="#F6E2C7"/>
<stop offset="1" stop-color="#B39868"/>
</linearGradient>
<clipPath id="clip0_14_1214">
<rect width="132.353" height="50" fill="white"/>
</clipPath>
</defs>
</svg>
