<svg width="156" height="74" viewBox="0 0 156 74" fill="none" xmlns="http://www.w3.org/2000/svg">
<path d="M103.298 53.3701H116.706V57.5114H107.983V60.6691H114.299V64.5515H107.983V68.5116H117.068V72.6529H103.298V53.3701ZM92.5051 73.0153C96.3876 73.0153 99.623 71.1517 101.383 67.994L97.8111 65.561C96.5946 67.5798 94.9123 68.7705 92.531 68.7705C89.218 68.7705 86.8109 66.4669 86.8109 63.0503C86.8109 59.6338 89.218 57.2525 92.531 57.2525C94.9123 57.2525 96.5946 58.4432 97.8111 60.462L101.383 58.029C99.623 54.8713 96.3876 53.0077 92.531 53.0077C86.6556 53.0077 81.9967 57.3302 81.9967 62.9986C81.9967 68.7187 86.6556 73.0153 92.5051 73.0153ZM70.634 67.2951H76.0953C75.3447 64.8104 74.4388 62.455 73.3776 60.2291C72.2906 62.4809 71.3847 64.8621 70.634 67.2951ZM73.3518 52.7489C77.1565 57.2525 80.159 63.8268 82.4626 72.6529H77.4154C77.286 72.1094 77.2083 71.5658 77.053 71.0482H69.6246C69.4952 71.5658 69.4176 72.1094 69.2881 72.6529H64.241C66.6222 63.775 69.5987 57.2267 73.3518 52.7489ZM53.836 62.2997C55.4408 62.2997 56.4243 61.3162 56.4243 59.8408C56.4243 58.3655 55.4408 57.382 53.836 57.382H50.963V62.2997H53.836ZM63.2833 72.6529H58.0549L53.396 66.3374H50.963V72.6529H46.2782V53.3701H53.836C58.0549 53.3701 61.1868 55.8807 61.1868 59.8667C61.1868 62.3256 59.9444 64.2409 57.9773 65.328L63.2833 72.6529ZM135.626 24.6659V47.6241H141.01V35.4073L153.537 48.0382H155.271V25.08H149.888V37.1674L137.36 24.6659H135.626ZM120.329 41.3604H126.619C125.765 38.4615 124.704 35.692 123.487 33.1037C122.245 35.7438 121.183 38.4874 120.329 41.3604ZM123.487 24.3553C127.861 29.6095 131.304 37.2968 133.97 47.5982H128.172C128.042 46.9511 127.939 46.3299 127.758 45.7087H119.216C119.087 46.3299 118.983 46.9511 118.828 47.5982H113.03C115.722 37.245 119.139 29.5837 123.487 24.3553ZM95.5076 47.6241H111.348V42.784H100.891V38.1768H108.164V33.6473H100.891V29.946H110.934V25.1059H95.5076V47.6241ZM82.9543 48.0123C87.4321 48.0123 91.1592 45.8382 93.1781 42.1369L89.0886 39.2898C87.6909 41.6451 85.7497 43.0428 83.0061 43.0428C79.1754 43.0428 76.4059 40.351 76.4059 36.3391C76.4059 32.3273 79.1754 29.5837 83.0061 29.5837C85.7497 29.5837 87.6909 30.9813 89.0886 33.3367L93.1781 30.4896C91.1592 26.8142 87.4321 24.6141 83.0061 24.6141C76.2506 24.6141 70.8929 29.6613 70.8929 36.2873C70.867 43.0169 76.2248 48.0123 82.9543 48.0123ZM56.8126 43.0687C60.5397 43.0687 63.3609 40.3769 63.3609 36.3391C63.3609 32.3014 60.5138 29.6096 56.8126 29.6096C53.1113 29.6096 50.2642 32.3531 50.2642 36.3391C50.2642 40.3769 52.9819 43.0687 56.8126 43.0687ZM56.7867 24.6659C63.4904 24.6659 68.8999 29.7131 68.8999 36.3391C68.8999 42.9651 63.4645 48.0123 56.7867 48.0123C50.1089 48.0123 44.7252 42.991 44.7252 36.3391C44.7252 29.7131 50.1089 24.6659 56.7867 24.6659ZM81.8414 19.6446H95.404V15.5033H86.4485V11.5433H92.6863V7.66081H86.4485V4.47721H95.0417V0.335938H81.8155V19.6446M62.4809 19.6446H67.0881V11.6986H74.6977V19.6446H79.3307V0.335938H74.7236V7.5314H67.114V0.335938H62.5068V19.6446M49.9018 19.6446H54.509V4.47721H60.4879V0.335938H43.9746V4.47721H49.9018V19.6446Z" fill="white"/>
<path d="M36.495 24.0194C33.7514 23.0876 29.4807 22.1817 24.2006 17.5745C31.0854 17.031 35.0714 18.8946 37.815 19.8263C37.7115 20.6546 37.6338 21.1981 37.375 22.0005C37.1161 22.8029 36.8832 23.2947 36.495 24.0194ZM34.9937 37.6856C35.8738 37.2714 36.4432 36.9608 37.2456 36.3397C38.0479 35.7443 38.5138 35.2526 39.1868 34.5537C37.1161 31.629 34.5279 26.9183 27.41 22.3887C29.3771 30.7489 32.949 34.7608 34.9937 37.6856ZM27.1771 4.96953C26.5041 4.2448 26.0641 3.77891 25.2359 3.1836C24.4335 2.58829 23.8641 2.2777 22.9841 1.83769C20.9134 4.76246 17.3675 8.77432 15.4004 17.1345C22.4923 12.605 25.1065 7.8943 27.1771 4.96953ZM15.3227 0.336478C14.1839 0.103532 13.4074 0 12.1909 0C10.9744 0 10.1979 0.129415 9.05903 0.336478C9.05903 4.7107 8.36019 11.2332 12.1909 20.8875C16.0474 11.2332 15.3227 4.68481 15.3227 0.336478ZM34.9937 13.485C34.8902 12.5791 34.7867 11.9838 34.502 11.1038C34.2173 10.2238 33.9584 9.68022 33.5443 8.87785C30.516 9.88729 25.8053 10.8967 20.0334 15.9439C27.5912 16.5392 31.9654 14.4945 34.9937 13.485ZM4.19304 10.5602C3.31302 10.9744 2.74359 11.285 1.94122 11.9062C1.13885 12.5015 0.672957 12.9932 0 13.6921C2.07064 16.6169 4.65893 21.3275 11.7767 25.8571C9.80964 17.4969 6.23779 13.485 4.19304 10.5602ZM23.5017 47.547C24.6406 47.7799 25.4171 47.8835 26.6336 47.8835C27.8501 47.8835 28.6265 47.754 29.7654 47.547C29.7654 43.1728 30.4901 36.6503 26.6336 26.9959C22.777 36.6503 23.5017 43.1986 23.5017 47.547ZM2.32947 23.8641C1.94122 24.5888 1.70827 25.0806 1.44945 25.8829C1.19062 26.6853 1.11297 27.2289 1.00943 28.0571C3.75303 28.9889 7.739 30.8266 14.6239 30.3089C9.36963 25.6759 5.09894 24.77 2.32947 23.8641ZM11.6732 42.9139C12.3462 43.6387 12.7862 44.1045 13.6144 44.7257C14.4168 45.321 14.9862 45.6316 15.8662 46.0716C17.9369 43.1469 21.4828 39.135 23.4499 30.7748C16.3321 35.2785 13.718 39.9892 11.6732 42.9139ZM3.83068 34.3984C3.93421 35.3043 4.03774 35.8996 4.32245 36.7797C4.60716 37.6597 4.86599 38.2032 5.28012 39.0056C8.30843 37.9962 13.0191 36.9867 18.8169 31.9396C11.2332 31.3442 6.85898 33.389 3.83068 34.3984Z" fill="white"/>
</svg>
