<svg width="217" height="44" viewBox="0 0 217 44" fill="none" xmlns="http://www.w3.org/2000/svg">
<path d="M59.8919 21.2613L53.2973 5.08108H56.3964L60.1802 14.7387L64.3243 4.64865L68.4324 14.7387L72.1802 5.08108H75.1712L68.5766 21.2613L64.2162 10.8468L59.8919 21.2613ZM89.3694 20.6486H86.3423L84.7568 17.2973H78.1261L76.5405 20.6486H73.5135L81.4414 4.46847L89.3694 20.6486ZM79.2072 15.0631H83.7477L81.4414 10.2703L79.2072 15.0631ZM94.2703 20.6486H91.3874V5.08108H95.7838C99.2072 5.08108 101.658 6.84685 101.658 9.90991C101.658 12.036 100.468 13.4775 98.5946 14.1622L103.423 20.6486H100.072L95.6036 14.6306H94.2342V20.6486H94.2703ZM94.2703 12.3243H95.7838C97.5495 12.3243 98.7387 11.4595 98.7387 9.90991C98.7387 8.36036 97.5495 7.45946 95.7838 7.45946H94.2703V12.3243ZM139.279 20.6486H136.396V5.08108H140.793C144.216 5.08108 146.667 6.84685 146.667 9.90991C146.667 12.036 145.477 13.4775 143.604 14.1622L148.432 20.6486H145.081L140.613 14.6306H139.243V20.6486H139.279ZM139.279 12.3243H140.793C142.559 12.3243 143.748 11.4595 143.748 9.90991C143.748 8.36036 142.559 7.45946 140.793 7.45946H139.279V12.3243ZM116.865 5.08108H119.676V21.2252L108.721 10.6667V20.6126H105.91V4.46847L116.865 15.027V5.08108ZM123.423 5.08108H133.009V7.45946H126.234V11.4955H132.468V13.9099H126.234V18.2703H133.045V20.6486H123.423V5.08108ZM156.072 5.08108H160.541C164 5.08108 165.838 6.7027 165.838 9.18919C165.838 10.7748 164.865 11.9279 163.676 12.4324C165.441 12.9009 166.811 14.2342 166.811 16.2162C166.811 18.955 164.685 20.6486 161.297 20.6486H156.072V5.08108ZM160.36 11.6757C161.982 11.6757 162.991 10.955 162.991 9.58559C162.991 8.21622 161.982 7.45946 160.36 7.45946H158.883V11.6396H160.36V11.6757ZM161.117 18.2342C162.775 18.2342 163.856 17.3694 163.856 16C163.856 14.6306 162.739 13.8018 161.117 13.8018H158.883V18.2703H161.117V18.2342ZM172.685 20.6486H169.802V5.08108H174.198C177.622 5.08108 180.072 6.84685 180.072 9.90991C180.072 12.036 178.883 13.4775 177.009 14.1622L181.838 20.6486H178.486L174.054 14.6306H172.685V20.6486ZM172.685 12.3243H174.198C175.964 12.3243 177.153 11.4595 177.153 9.90991C177.153 8.36036 175.964 7.45946 174.198 7.45946H172.685V12.3243ZM198.667 12.8649C198.667 17.2973 195.135 20.9009 190.703 20.9009C186.27 20.9009 182.739 17.2973 182.739 12.8649C182.739 8.43243 186.27 4.82883 190.703 4.82883C195.135 4.82883 198.667 8.43243 198.667 12.8649ZM185.658 12.8649C185.658 15.9279 187.928 18.2342 190.739 18.2342C193.55 18.2342 195.82 15.9279 195.82 12.8649C195.82 9.8018 193.55 7.4955 190.739 7.4955C187.928 7.4955 185.658 9.8018 185.658 12.8649ZM205.405 18.4505C206.991 18.4505 208.108 17.7297 208.108 16.4685C208.108 15.4595 207.459 15.027 206.45 14.5225L203.856 13.2973C202.162 12.5045 200.757 11.4955 200.757 9.2973C200.757 6.59459 202.955 4.82883 205.874 4.82883C207.64 4.82883 209.225 5.58559 210.054 6.37838V9.36937C208.865 8.18018 207.315 7.31531 205.766 7.31531C204.468 7.31531 203.495 7.96396 203.495 9.11712C203.495 9.98198 204.108 10.4144 204.973 10.8468L207.387 11.964C209.658 13.009 210.847 14.0901 210.847 16.2523C210.847 19.1351 208.432 20.9369 205.369 20.9369C203.387 20.9369 201.658 20.1802 200.613 19.3874V16.4324C201.982 17.5135 203.64 18.4505 205.405 18.4505ZM216.288 18.955C216.288 19.964 215.495 20.7568 214.486 20.7568H214.45C213.441 20.7568 212.649 19.964 212.649 18.955C212.649 17.9459 213.441 17.1532 214.45 17.1532H214.486C215.495 17.1892 216.288 17.982 216.288 18.955ZM153.369 41.4414H150.486V25.9099H154.883C158.306 25.9099 160.757 27.6757 160.757 30.7387C160.757 32.8649 159.568 34.3063 157.694 34.991L162.523 41.4775H159.171L154.703 35.4595H153.333V41.4414H153.369ZM153.369 33.1532H154.883C156.649 33.1532 157.838 32.2883 157.838 30.7387C157.838 29.1892 156.649 28.2883 154.883 28.2883H153.369V33.1532ZM137.369 25.9099H146.955V28.2883H140.18V32.3243H146.414V34.7387H140.18V39.0991H147.027V41.4775H137.405V25.9099H137.369ZM119.315 33.6577C119.315 38.0901 115.784 41.6937 111.351 41.6937C106.919 41.6937 103.387 38.0901 103.387 33.6577C103.387 29.2252 106.919 25.6216 111.351 25.6216C115.784 25.6577 119.315 29.2252 119.315 33.6577ZM106.27 33.6577C106.27 36.7207 108.541 39.027 111.351 39.027C114.162 39.027 116.432 36.7207 116.432 33.6577C116.432 30.5946 114.162 28.2883 111.351 28.2883C108.541 28.2883 106.27 30.5946 106.27 33.6577ZM60.036 25.9099C64.4685 25.9099 68.036 29.2613 68.036 33.6937C68.036 38.1261 64.4685 41.4775 60.036 41.4775H55.2432V25.9099H60.036ZM58.1261 28.2883V39.0631H59.8559C62.991 39.0631 65.1532 36.6486 65.1532 33.6577C65.1532 30.6667 62.991 28.2523 59.8559 28.2523H58.1261V28.2883ZM73.8739 25.9099V41.4414H70.991V25.9099H73.8739ZM81.5856 39.2432C83.1712 39.2432 84.2883 38.5225 84.2883 37.2613C84.2883 36.2523 83.6396 35.8198 82.6306 35.3153L80.036 34.0901C78.3423 33.2973 76.9369 32.2883 76.9369 30.0901C76.9369 27.3874 79.1712 25.6216 82.0541 25.6216C83.8198 25.6216 85.4054 26.3784 86.2342 27.1712V30.1622C85.045 28.973 83.4955 28.1081 81.9459 28.1081C80.6486 28.1081 79.6757 28.7568 79.6757 29.9099C79.6757 30.7748 80.2883 31.2072 81.1532 31.6396L83.5676 32.7568C85.8378 33.8018 87.027 34.8829 87.027 37.045C87.027 39.9279 84.6126 41.7297 81.5495 41.7297C79.5676 41.7297 77.8378 40.973 76.7928 40.1802V37.2252C78.1622 38.3063 79.8198 39.2432 81.5856 39.2432ZM101.153 37.2973V40.6126C100 41.3333 98.6306 41.6937 97.1171 41.6937C92.6847 41.6937 89.1171 38.0901 89.1171 33.6577C89.1171 29.2252 92.6847 25.6216 97.1171 25.6216C98.5946 25.6216 100 26.018 101.153 26.7027V30.018C100.252 29.009 98.8468 28.3604 97.1892 28.3604C94.2342 28.3604 92 30.6667 92 33.6577C92 36.6486 94.2703 38.955 97.1892 38.955C98.8468 38.955 100.252 38.3063 101.153 37.2973ZM119.568 25.9099H122.739L127.568 36.3243L132.36 25.9099H135.423L127.495 42.0901L119.568 25.9099ZM167.82 41.4414V34.4504L162.018 25.8739H165.261L169.261 31.7838L173.297 25.8739H176.541L170.739 34.4504V41.4414H167.82ZM42.3423 11.1351V8.9009L39.3513 7.27928V4.93694L37.8378 4.21622C33.4775 2.16216 28.6847 0.792793 23.1351 0.036036L22.7748 0L22.4144 0.036036C16.9009 0.792793 12.0721 2.16216 7.74775 4.25225L6.23423 4.97297V7.31531L3.24324 8.9009V11.1351L0 12.8649L0.252252 14.7027C1.11712 20.9009 3.38739 26.5225 6.99099 31.3874C10.6306 36.3243 15.5315 40.3604 21.5856 43.3874L22.7748 44L23.964 43.3874C30.018 40.3604 34.9189 36.3243 38.5586 31.3874C42.1622 26.5225 44.4324 20.9009 45.2973 14.7027L45.5495 12.8649L42.3423 11.1351ZM42.6667 14.3423C42.3784 16.3964 41.4054 23.1712 36.4324 29.8018C31.3874 36.6486 24.7928 39.964 22.7748 40.973C20.7928 39.964 14.1622 36.6486 9.11712 29.8018C4.18018 23.2072 3.20721 16.4324 2.91892 14.3423L5.90991 12.7207V10.4865L8.9009 8.86486V6.63063C13.009 4.64865 17.5495 3.38739 22.7748 2.66667C28 3.35135 32.5405 4.64865 36.6486 6.63063V8.86486L39.6396 10.4865V12.7207L42.6667 14.3423Z" fill="white"/>
<path d="M18.3418 8.07179L18.4859 26.27L18.3418 26.3421C16.4319 21.4772 15.2787 15.4231 14.9184 9.33305C13.9814 9.76548 12.9724 10.27 11.9274 10.9186C12.3598 16.4322 13.2968 21.261 14.9904 25.8736L14.0175 26.4141C11.4589 22.8466 9.80126 18.5222 8.68414 13.3691C7.89135 14.0898 7.13459 14.8826 6.3418 15.7475C7.81927 21.9096 10.1977 26.5943 13.6211 30.3781L16.2517 28.7925C17.549 31.4952 19.3508 34.1619 21.3688 36.288V7.53125C20.3598 7.63936 19.3508 7.81954 18.3418 8.07179ZM35.3508 17.4772C36.4319 16.288 36.6481 15.4231 36.6481 14.3781C36.6481 12.9006 35.4229 11.5673 33.6211 10.4141C32.54 9.72945 30.8823 8.90062 28.4679 8.21593C27.0986 7.85557 25.6211 7.60332 24.1436 7.56729V36.3601C30.1977 33.261 37.3688 24.7204 37.4049 20.3601C37.4769 19.0267 36.7922 18.1619 35.3508 17.4772ZM27.1706 10.9907C28.6481 10.9907 33.4769 12.5042 33.4769 14.4502C33.4769 15.1349 32.8643 16.1439 30.9544 17.1529L27.1706 19.1709V10.9907ZM30.9184 26.9547C30.0535 27.9276 28.6841 29.4412 27.1706 30.5943V22.3421C27.1706 22.3421 32.6481 19.279 32.8283 19.1349C34.4499 19.5673 34.3778 20.7565 34.3778 20.8646C34.3778 22.3781 32.8283 24.7204 30.9184 26.9547Z" fill="white"/>
</svg>
