<svg width="40" height="40" viewBox="0 0 40 40" fill="none" xmlns="http://www.w3.org/2000/svg">
<circle cx="20" cy="20" r="20" fill="#B89C67"/>
<path d="M11.5583 14.4785L15.3145 11.0971" stroke="white" stroke-linecap="round" stroke-linejoin="round"/>
<path d="M21.8482 13.0787L18.3234 10.6843" stroke="white" stroke-linecap="round" stroke-linejoin="round"/>
<path d="M28.4211 10.4225L24.6083 13.0773" stroke="white" stroke-linecap="round" stroke-linejoin="round"/>
<path d="M10.1776 17.0119C11.0568 17.0119 11.7695 16.2992 11.7695 15.4201C11.7695 14.5409 11.0568 13.8282 10.1776 13.8282C9.29846 13.8282 8.58575 14.5409 8.58575 15.4201C8.58575 16.2992 9.29846 17.0119 10.1776 17.0119Z" stroke="white" stroke-linecap="round" stroke-linejoin="round"/>
<path d="M16.7979 11.8222C17.6771 11.8222 18.3898 11.1095 18.3898 10.2303C18.3898 9.35112 17.6771 8.63841 16.7979 8.63841C15.9187 8.63841 15.206 9.35112 15.206 10.2303C15.206 11.1095 15.9187 11.8222 16.7979 11.8222Z" stroke="white" stroke-linecap="round" stroke-linejoin="round"/>
<path d="M23.2021 15.6512C24.0813 15.6512 24.794 14.9385 24.794 14.0593C24.794 13.1802 24.0813 12.4675 23.2021 12.4675C22.3229 12.4675 21.6102 13.1802 21.6102 14.0593C21.6102 14.9385 22.3229 15.6512 23.2021 15.6512Z" stroke="white" stroke-linecap="round" stroke-linejoin="round"/>
<path d="M29.6063 10.6837C30.4855 10.6837 31.1982 9.97104 31.1982 9.09187C31.1982 8.21271 30.4855 7.5 29.6063 7.5C28.7271 7.5 28.0144 8.21271 28.0144 9.09187C28.0144 9.97104 28.7271 10.6837 29.6063 10.6837Z" stroke="white" stroke-linecap="round" stroke-linejoin="round"/>
<path d="M25.0093 19.3817H21.3942V30.2416H25.0093V19.3817Z" stroke="white" stroke-linecap="round" stroke-linejoin="round"/>
<path d="M12.2009 21.4343H8.58575V30.2408H12.2009V21.4343Z" stroke="white" stroke-linecap="round" stroke-linejoin="round"/>
<path d="M31.414 17.0106H27.7989V30.2396H31.414V17.0106Z" stroke="white" stroke-linecap="round" stroke-linejoin="round"/>
<path d="M18.6056 15.9222H14.9904V30.2418H18.6056V15.9222Z" stroke="white" stroke-linecap="round" stroke-linejoin="round"/>
<path d="M8.58575 32.5H31.4143" stroke="white" stroke-linecap="round" stroke-linejoin="round"/>
</svg>
