<svg width="40" height="40" viewBox="0 0 40 40" fill="none" xmlns="http://www.w3.org/2000/svg">
<circle cx="20" cy="20" r="20" fill="#B89C67"/>
<path d="M30.8457 21.236H25.6675V30.836H30.8457V21.236Z" stroke="white" stroke-linecap="round" stroke-linejoin="round"/>
<path d="M23.0403 25.9949H17.8621V30.8371H23.0403V25.9949Z" stroke="white" stroke-linecap="round" stroke-linejoin="round"/>
<path d="M15.2349 28.0045H10.0566V30.8371H15.2349V28.0045Z" stroke="white" stroke-linecap="round" stroke-linejoin="round"/>
<path d="M10.0566 32.5217H30.8456" stroke="white" stroke-linecap="round" stroke-linejoin="round"/>
<path d="M10.3687 26.094C8.93354 24.1558 8.08301 21.7522 8.08301 19.1487C8.08301 12.7277 13.2535 7.52173 19.6309 7.52173C26.0082 7.52173 30.8456 12.3978 31.1633 18.5334" stroke="white" stroke-linecap="round" stroke-linejoin="round"/>
<path d="M19.5776 21.9714C20.9192 21.9714 22.0067 20.8764 22.0067 19.5256C22.0067 18.1749 20.9192 17.0798 19.5776 17.0798C18.236 17.0798 17.1484 18.1749 17.1484 19.5256C17.1484 20.8764 18.236 21.9714 19.5776 21.9714Z" stroke="white" stroke-linecap="round" stroke-linejoin="round"/>
<path d="M20.9839 17.0799L24.9309 12.1827" stroke="white" stroke-linecap="round" stroke-linejoin="round"/>
</svg>
