<svg width="40" height="40" viewBox="0 0 40 40" fill="none" xmlns="http://www.w3.org/2000/svg">
<circle cx="20" cy="20" r="20" fill="#B89C67"/>
<path d="M24.0291 26.5063L24.9264 27.3721C25.2396 27.6736 25.7373 27.6654 26.0399 27.3523L28.0087 25.3122C28.3102 24.9991 28.302 24.5013 27.9888 24.1987L27.0798 23.3212C27.3649 22.7814 27.5846 22.2159 27.7376 21.6364L29.0065 21.6142C29.4412 21.606 29.787 21.2485 29.78 20.8127L29.7298 17.9781C29.7216 17.5434 29.3641 17.1976 28.9282 17.2046L27.6488 17.2268C27.4736 16.6578 27.2329 16.1051 26.9291 15.5805L27.8194 14.6575C28.1209 14.3443 28.1127 13.8466 27.7996 13.544L25.7595 11.5752C25.4464 11.2737 24.9486 11.2819 24.646 11.5951L23.7557 12.5181C23.2194 12.233 22.6597 12.0122 22.0849 11.8568L22.0627 10.5774C22.0545 10.1427 21.6969 9.79687 21.2611 9.80388L18.4266 9.85412C17.9919 9.8623 17.6461 10.2198 17.6531 10.6556L17.6753 11.9245C17.1016 12.0975 16.5442 12.337 16.015 12.6408L15.1059 11.7633C14.7928 11.4619 14.2951 11.47 13.9924 11.7832L12.0237 13.8232C11.7222 14.1363 11.7304 14.6341 12.0435 14.9367L12.9409 15.8025C12.6488 16.3458 12.4233 16.9148 12.2667 17.499L11.0258 17.5212C10.5912 17.5294 10.2453 17.8869 10.2523 18.3228L10.3026 21.1573C10.3108 21.592 10.6683 21.9378 11.1041 21.9308L12.3345 21.9086C12.5097 22.4905 12.7539 23.056 13.0647 23.5935L12.2118 24.4768C11.9103 24.7899 11.9185 25.2877 12.2316 25.5903L14.2717 27.5591C14.5848 27.8605 15.0826 27.8523 15.3852 27.5392L16.2381 26.6559" stroke="white" stroke-linecap="round" stroke-linejoin="round"/>
<path d="M22.8599 28.6499V29.9153C22.8599 30.6187 22.4568 31.19 21.9602 31.19H18.0752C17.5787 31.19 17.1756 30.6198 17.1756 29.9153V28.6499" stroke="white" stroke-linecap="round" stroke-linejoin="round"/>
<path d="M17.7794 32.8444H22.2556" stroke="white" stroke-linecap="round" stroke-linejoin="round"/>
<path d="M18.5658 34.5001H21.4681" stroke="white" stroke-linecap="round" stroke-linejoin="round"/>
<path d="M20.0169 23.5669C22.1509 23.5669 23.8809 21.8369 23.8809 19.7029C23.8809 17.5689 22.1509 15.839 20.0169 15.839C17.8829 15.839 16.153 17.5689 16.153 19.7029C16.153 21.8369 17.8829 23.5669 20.0169 23.5669Z" stroke="white" stroke-linecap="round" stroke-linejoin="round"/>
<path d="M5.87677 19.7036H8.41573" stroke="white" stroke-linecap="round" stroke-linejoin="round"/>
<path d="M30.513 9.62048L28.6751 11.3719" stroke="white" stroke-linecap="round" stroke-linejoin="round"/>
<path d="M9.37737 9.62048L11.2164 11.3719" stroke="white" stroke-linecap="round" stroke-linejoin="round"/>
<path d="M34.1235 19.7036H31.5845" stroke="white" stroke-linecap="round" stroke-linejoin="round"/>
<path d="M20.1608 5.49988V8.03884" stroke="white" stroke-linecap="round" stroke-linejoin="round"/>
</svg>
