<svg width="30" height="30" viewBox="0 0 30 30" fill="none" xmlns="http://www.w3.org/2000/svg">
<circle cx="15" cy="15" r="14.25" stroke="white" stroke-width="1.5"/>
<path d="M11.1084 8.91394L6.6604 21.086H8.20332L9.42653 17.6421H14.3333L15.5565 21.086H17.0994L12.6375 8.91394H11.1223H11.1084ZM9.88523 16.3315L11.8313 10.838H11.9286L13.8746 16.3315H9.89913H9.88523Z" fill="white"/>
<path d="M22.9932 11.8141C22.8403 11.8141 22.7152 11.8141 22.604 11.8141C22.0619 11.8141 21.5754 11.9535 21.1306 12.2324C20.6997 12.5113 20.3939 12.8738 20.2271 13.3339H20.1298V11.9535H18.7815V21.086H20.1854V15.3137C20.1854 14.8955 20.2827 14.533 20.4912 14.2123C20.6858 13.8916 20.9638 13.6406 21.3113 13.4594C21.6588 13.2781 22.048 13.1805 22.4928 13.1805C22.6735 13.1805 22.8542 13.1805 23.021 13.2223C23.1878 13.2502 23.299 13.2642 23.3407 13.2781V11.8559C23.2573 11.8559 23.1461 11.8559 22.9932 11.842V11.8141Z" fill="white"/>
</svg>
