<svg width="30" height="30" viewBox="0 0 30 30" fill="none" xmlns="http://www.w3.org/2000/svg">
<circle cx="15" cy="15" r="14.25" stroke="white" stroke-width="1.5"/>
<path d="M18.9836 9.94754V12.3969C18.9836 14.3439 17.3847 15.9213 15.4113 15.9213H14.5886C12.6152 15.9213 11.0164 14.3439 11.0164 12.3969V9.94754C11.0164 9.8158 11.0231 9.6863 11.0367 9.56127C11.2336 7.79515 12.7499 6.422 14.5898 6.422H15.4124C17.2523 6.422 18.7674 7.79515 18.9654 9.56127C18.979 9.6863 18.9858 9.8158 18.9858 9.94754H18.9836Z" stroke="white" stroke-width="1.5" stroke-miterlimit="10"/>
<path d="M6.03979 26.1847C6.03979 21.9502 9.51929 18.5173 13.8112 18.5173H16.1875C20.4794 18.5173 23.9589 21.9502 23.9589 26.1847" stroke="white" stroke-width="1.5" stroke-miterlimit="10"/>
</svg>
