<svg width="40" height="40" viewBox="0 0 40 40" fill="none" xmlns="http://www.w3.org/2000/svg">
<circle cx="20" cy="20" r="20" fill="#B89C67"/>
<path d="M25.3607 20.6799C22.7018 23.779 22.7029 25.4136 22.7029 26.2999H13.7031C13.7031 25.4136 13.7031 23.7802 11.0454 20.6799C9.90414 19.1928 9.20312 17.3671 9.20312 15.362C9.20312 10.4689 13.2298 6.5 18.2018 6.5H18.2054C20.9752 6.5 23.4523 7.73329 25.1034 9.67232" stroke="white" stroke-linecap="round" stroke-linejoin="round"/>
<path d="M22.7026 26.3002V29.901H13.7027V26.3002" stroke="white" stroke-linecap="round" stroke-linejoin="round"/>
<path d="M20.9035 29.9005V32.0236C20.9035 32.8391 20.2426 33.5 19.4271 33.5H16.9807C16.1652 33.5 15.5043 32.8391 15.5043 32.0236V29.9005" stroke="white" stroke-linecap="round" stroke-linejoin="round"/>
<path d="M15.5028 23.32V21.1968C15.5028 20.3813 16.1637 19.7204 16.9792 19.7204H19.4256C20.2411 19.7204 20.902 20.3813 20.902 21.1968V23.32" stroke="white" stroke-linecap="round" stroke-linejoin="round"/>
<path d="M16.6219 13.7455H24.903C25.5202 12.0165 27.1725 10.7797 29.1138 10.7797C31.5827 10.7797 33.5843 12.7801 33.5843 15.249C33.5843 17.718 31.5827 19.7196 29.1138 19.7196C27.2067 19.7196 25.5769 18.524 24.9361 16.8411H23.7063L22.8094 15.5889L21.9137 16.8411H19.898L19.0011 15.5889L18.1053 16.8411H16.6219" stroke="white" stroke-linecap="round" stroke-linejoin="round"/>
<path d="M30.0695 16.6466C30.8399 16.6466 31.4645 16.022 31.4645 15.2516C31.4645 14.4812 30.8399 13.8566 30.0695 13.8566C29.2991 13.8566 28.6746 14.4812 28.6746 15.2516C28.6746 16.022 29.2991 16.6466 30.0695 16.6466Z" stroke="white" stroke-linecap="round" stroke-linejoin="round"/>
<path d="M16.3567 19.8579V13.1439C16.3567 12.1242 17.1839 11.2969 18.2036 11.2969C18.7134 11.2969 19.1761 11.5046 19.5089 11.8386C19.8417 12.1726 20.0506 12.6341 20.0506 13.1439V13.7458" stroke="white" stroke-linecap="round" stroke-linejoin="round"/>
<path d="M20.0501 19.8578V18.4274" stroke="white" stroke-linecap="round" stroke-linejoin="round"/>
</svg>
