<svg width="40" height="40" viewBox="0 0 40 40" fill="none" xmlns="http://www.w3.org/2000/svg">
<circle cx="20" cy="20" r="20" fill="#B89C67"/>
<path d="M26.3594 9.88904C29.4204 11.5865 31.6036 14.4971 32.1329 17.9013" stroke="white" stroke-linecap="round" stroke-linejoin="round"/>
<path d="M13.6439 9.88904C10.5829 11.5865 8.39962 14.4971 7.87032 17.9013" stroke="white" stroke-linecap="round" stroke-linejoin="round"/>
<path d="M25.4247 31.655C23.7932 32.5156 21.9505 33 19.9983 33C18.0461 33 16.2034 32.5156 14.5719 31.655" stroke="white" stroke-linecap="round" stroke-linejoin="round"/>
<path d="M11.333 24.3332C13.1532 24.3332 15.3774 25.5528 15.3774 26.3871V28.3776C13.9967 29.3068 12.7837 29.5326 11.333 29.5326C9.88235 29.5326 8.6693 29.3068 7.2886 28.3776V26.3871C7.2886 25.5528 9.51276 24.3332 11.333 24.3332Z" stroke="white" stroke-linecap="round" stroke-linejoin="round"/>
<path d="M11.3325 18.5551C12.5271 18.5551 13.6438 19.487 13.6438 20.6354V22.2524C13.6438 23.4007 12.5271 24.3326 11.3325 24.3326C10.138 24.3326 9.02127 23.4007 9.02127 22.2524V20.6354C9.02127 19.487 10.138 18.5551 11.3325 18.5551Z" stroke="white" stroke-linecap="round" stroke-linejoin="round"/>
<path d="M19.9996 12.777C21.8199 12.777 24.044 13.9967 24.044 14.8309V16.8214C22.889 17.7507 21.4503 17.9764 19.9996 17.9764C18.549 17.9764 17.1102 17.7507 15.9552 16.8214V14.8309C15.9552 13.9967 18.1794 12.777 19.9996 12.777Z" stroke="white" stroke-linecap="round" stroke-linejoin="round"/>
<path d="M19.9997 7C21.1943 7 22.311 7.9319 22.311 9.08028V10.6972C22.311 11.8456 21.1943 12.7775 19.9997 12.7775C18.8051 12.7775 17.6884 11.8456 17.6884 10.6972V9.08028C17.6884 7.9319 18.8051 7 19.9997 7Z" stroke="white" stroke-linecap="round" stroke-linejoin="round"/>
<path d="M28.6668 24.3332C30.487 24.3332 32.7112 25.5528 32.7112 26.3871V28.3776C31.3305 29.3068 30.1174 29.5326 28.6668 29.5326C27.2161 29.5326 26.0031 29.3068 24.6224 28.3776V26.3871C24.6224 25.5528 26.8465 24.3332 28.6668 24.3332Z" stroke="white" stroke-linecap="round" stroke-linejoin="round"/>
<path d="M28.6668 18.5551C29.8614 18.5551 30.9781 19.487 30.9781 20.6354V22.2524C30.9781 23.4007 29.8614 24.3326 28.6668 24.3326C27.4723 24.3326 26.3556 23.4007 26.3556 22.2524V20.6354C26.3556 19.487 27.4723 18.5551 28.6668 18.5551Z" stroke="white" stroke-linecap="round" stroke-linejoin="round"/>
</svg>
